<svg xmlns="http://www.w3.org/2000/svg" version="1.2"><font><font-face font-family="Minecraft" ascent="1000" descent="-100" font-style="normal" font-weight="400" cap-height="700" x-height="500" underline-position="-75" underline-thickness="50"/><glyph glyph-name="NULL"/><glyph glyph-name="CR" horiz-adv-x="300"/><glyph glyph-name="space" horiz-adv-x="300"/><glyph glyph-name="exclam" unicode="!" horiz-adv-x="200" d="M50 200h100v500H50V200ZM50 0h100v100H50V0Z"/><glyph glyph-name="quotedbl" unicode="&quot;" horiz-adv-x="400" d="M50 500h100v200H50V500Zm200 0h100v200H250V500Z"/><glyph glyph-name="numbersign" unicode="#" horiz-adv-x="600" d="M550 400v100H450v200H350V500H250v200H150V500H50V400h100V300H50V200h100V0h100v200h100V0h100v200h100v100H450v100h100ZM350 300H250v100h100V300Z"/><glyph glyph-name="dollar" unicode="$" horiz-adv-x="600" d="M250 600H150V500h400v100H350v100H250V600ZM50 100h200V0h100v100h100v100H50V100Zm100 200h300V200h100v100H450v100H150v100H50V400h100V300Z"/><glyph glyph-name="percent" unicode="%" horiz-adv-x="600" d="M50 500h100v200H50V500Zm400 100h100v100H450V600ZM350 400h100v200H350V400ZM250 300h100v100H250V300ZM150 100h100v200H150V100ZM450 0h100v200H450V0ZM50 0h100v100H50V0Z"/><glyph glyph-name="ampersand" unicode="&amp;" horiz-adv-x="600" d="M250 400H150V300h200V100h100V0h100v100H450v200H350v200H250v100H150V500h100V400ZM150 0h200v100H150v200H50V100h100V0Zm200 500h100v100H350v100H250V600h100V500Zm100-200h100v100H450V300Z"/><glyph glyph-name="quotesingle" unicode="'" horiz-adv-x="200" d="M50 500h100v200H50V500Z"/><glyph glyph-name="parenleft" unicode="(" horiz-adv-x="500" d="M150 100h100V0h100v100H250v100H150v300H50V200h100V100Zm100 500h100v100H250V600ZM150 500h100v100H150V500Z"/><glyph glyph-name="parenright" unicode=")" horiz-adv-x="500" d="M250 500h100V200h100v300H350v100H250v100H150V600h100V500ZM150 0h100v100H150V0Zm100 100h100v100H250V100Z"/><glyph glyph-name="asterisk" unicode="*" horiz-adv-x="400" d="M150 500h100V400h100v100H250v100H150v100H50V600h100V500ZM50 400h100v100H50V400Zm200 200h100v100H250V600Z"/><glyph glyph-name="plus" unicode="+" horiz-adv-x="600" d="M250 400H50V300h200V100h100v200h200v100H350v200H250V400Z"/><glyph glyph-name="comma" unicode="," horiz-adv-x="200" d="M50-100h100v200H50v-200Z"/><glyph glyph-name="hyphen" unicode="-" horiz-adv-x="400" d="M50 300h300v100H50V300Z"/><glyph glyph-name="period" unicode="." horiz-adv-x="200" d="M50 0h100v100H50V0Z"/><glyph glyph-name="slash" unicode="/" horiz-adv-x="600" d="M450 600h100v100H450V600ZM350 400h100v200H350V400ZM250 300h100v100H250V300ZM150 100h100v200H150V100ZM50 0h100v100H50V0Z"/><glyph glyph-name="zero" unicode="0" horiz-adv-x="600" d="M450 500H350V400h100V100h100v500H450v100H150V600h300V500ZM150 0h300v100H150v100h100v100H150v300H50V100h100V0Zm100 300h100v100H250V300Z"/><glyph glyph-name="one" unicode="1" horiz-adv-x="600" d="M250 600H150V500h100V100H50V0h500v100H350v600H250V600Z"/><glyph glyph-name="two" unicode="2" horiz-adv-x="600" d="M50 0h500v200H450V100H150v100H50V0Zm400 400h100v200H450v100H150V600h300V400ZM250 300h200v100H250V300ZM150 200h100v100H150V200ZM50 500h100v100H50V500Z"/><glyph glyph-name="three" unicode="3" horiz-adv-x="600" d="M450 400h100v200H450v100H150V600h300V400ZM150 0h300v100H150v100H50V100h100V0Zm300 100h100v200H450v100H250V300h200V100ZM50 500h100v100H50V500Z"/><glyph glyph-name="four" unicode="4" horiz-adv-x="600" d="M350 600h100V300H150v100H50V200h400V0h100v700H350V600ZM250 500h100v100H250V500ZM150 400h100v100H150V400Z"/><glyph glyph-name="five" unicode="5" horiz-adv-x="600" d="M450 100h100v300H450v100H150v100h400v100H50V400h400V100ZM150 0h300v100H150v100H50V100h100V0Z"/><glyph glyph-name="six" unicode="6" horiz-adv-x="600" d="M150 0h300v100H150v200h300V100h100v200H450v100H150v100H50V100h100V0Zm100 600h200v100H250V600ZM150 500h100v100H150V500Z"/><glyph glyph-name="seven" unicode="7" horiz-adv-x="600" d="M50 500h100v100h300V400h100v300H50V500Zm300-200h100v100H350V300ZM250 0h100v300H250V0Z"/><glyph glyph-name="eight" unicode="8" horiz-adv-x="600" d="M150 300h300V100h100v200H450v100H150v200H50V400h100V300Zm0-300h300v100H150v200H50V100h100V0Zm300 400h100v200H450v100H150V600h300V400Z"/><glyph glyph-name="nine" unicode="9" horiz-adv-x="600" d="M50 400h100V300h300V200h100v400H450v100H150V600H50V400Zm400 0H150v200h300V400ZM150 0h200v100H150V0Zm200 100h100v100H350V100Z"/><glyph glyph-name="colon" unicode=":" horiz-adv-x="200" d="M50 400h100v100H50V400ZM50 0h100v100H50V0Z"/><glyph glyph-name="semicolon" unicode=";" horiz-adv-x="200" d="M50 400h100v100H50V400Zm100-300H50v-200h100v200Z"/><glyph glyph-name="less" unicode="&lt;" horiz-adv-x="500" d="M150 200h100V100h100V0h100v100H350v100H250v100H150v100H50V300h100V200Zm100 300h100v100H250V500ZM150 400h100v100H150V400Zm200 200h100v100H350V600Z"/><glyph glyph-name="equal" unicode="=" horiz-adv-x="600" d="M50 400h500v100H50V400Zm0-300h500v100H50V100Z"/><glyph glyph-name="greater" unicode="&gt;" horiz-adv-x="500" d="M150 500h100V400h100V300h100v100H350v100H250v100H150v100H50V600h100V500ZM50 0h100v100H50V0Zm100 100h100v100H150V100Zm100 100h100v100H250V200Z"/><glyph glyph-name="question" unicode="?" horiz-adv-x="600" d="M450 400h100v200H450v100H150V600h300V400ZM250 0h100v100H250V0Zm0 200h100v100H250V200Zm100 100h100v100H350V300ZM50 500h100v100H50V500Z"/><glyph glyph-name="at" unicode="@" horiz-adv-x="700" d="M550 200H350v100h100v100H250V100h400v400H550v100H150V500h400V200ZM150-100h400V0H150v500H50V0h100v-100Z"/><glyph glyph-name="A" unicode="A" horiz-adv-x="600" d="M50 0h100v400h300V0h100v600H450v100H150V600H50V0Zm100 600h300V500H150v100Z"/><glyph glyph-name="B" unicode="B" horiz-adv-x="600" d="M450 100h100v300H450v100H150v100h300V500h100v100H450v100H50V0h400v100H150v300h300V100Z"/><glyph glyph-name="C" unicode="C" horiz-adv-x="600" d="M150 0h300v100H150v500H50V100h100V0Zm300 500h100v100H450v100H150V600h300V500Zm0-400h100v100H450V100Z"/><glyph glyph-name="D" unicode="D" horiz-adv-x="600" d="M450 100h100v500H450v100H50V0h400v100H150v500h300V100Z"/><glyph glyph-name="E" unicode="E" horiz-adv-x="600" d="M50 0h500v100H150v300h200v100H150v100h400v100H50V0Z"/><glyph glyph-name="F" unicode="F" horiz-adv-x="600" d="M50 0h100v400h200v100H150v100h400v100H50V0Z"/><glyph glyph-name="G" unicode="G" horiz-adv-x="600" d="M150 0h300v100H150v500H50V100h100V0Zm200 400h100V100h100v400H350V400ZM150 600h400v100H150V600Z"/><glyph glyph-name="H" unicode="H" horiz-adv-x="600" d="M50 0h100v400h300V0h100v700H450V500H150v200H50V0Z"/><glyph glyph-name="I" unicode="I" horiz-adv-x="400" d="M50 600h100V100H50V0h300v100H250v500h100v100H50V600Z"/><glyph glyph-name="J" unicode="J" horiz-adv-x="600" d="M450 100h100v600H450V100ZM150 0h300v100H150v100H50V100h100V0Z"/><glyph glyph-name="K" unicode="K" horiz-adv-x="600" d="M450 0h100v300H450v100H350v100H150v200H50V0h100v400h200V300h100V0Zm0 600h100v100H450V600ZM350 500h100v100H350V500Z"/><glyph glyph-name="L" unicode="L" horiz-adv-x="600" d="M50 0h500v100H150v600H50V0Z"/><glyph glyph-name="M" unicode="M" horiz-adv-x="600" d="M250 400h100v100H250v100H150v100H50V0h100v500h100V400Zm200 200H350V500h100V0h100v700H450V600Z"/><glyph glyph-name="N" unicode="N" horiz-adv-x="600" d="M250 400h100V300h100V0h100v700H450V400H350v100H250v100H150v100H50V0h100v500h100V400Z"/><glyph glyph-name="O" unicode="O" horiz-adv-x="600" d="M450 100h100v500H450v100H150V600h300V100ZM150 0h300v100H150v500H50V100h100V0Z"/><glyph glyph-name="P" unicode="P" horiz-adv-x="600" d="M450 500h100v100H450v100H50V0h100v400h300v100H150v100h300V500Z"/><glyph glyph-name="Q" unicode="Q" horiz-adv-x="600" d="M450 200h100v400H450v100H150V600h300V200ZM150 0h200v100H150v500H50V100h100V0Zm300 0h100v100H450v100H350V100h100V0Z"/><glyph glyph-name="R" unicode="R" horiz-adv-x="600" d="M450 0h100v400H450v100H150v100h300V500h100v100H450v100H50V0h100v400h300V0Z"/><glyph glyph-name="S" unicode="S" horiz-adv-x="600" d="M150 400h300V100h100v300H450v100H150v100H50V500h100V400Zm0-400h300v100H150v100H50V100h100V0Zm0 600h400v100H150V600Z"/><glyph glyph-name="T" unicode="T" horiz-adv-x="600" d="M50 600h200V0h100v600h200v100H50V600Z"/><glyph glyph-name="U" unicode="U" horiz-adv-x="600" d="M150 0h300v100H150v600H50V100h100V0Zm300 100h100v600H450V100Z"/><glyph glyph-name="V" unicode="V" horiz-adv-x="600" d="M150 100h100V0h100v100H250v200H150v400H50V300h100V100Zm300 200h100v400H450V300ZM350 100h100v200H350V100Z"/><glyph glyph-name="W" unicode="W" horiz-adv-x="600" d="M250 200h100V100h100V0h100v700H450V200H350v100H250V200ZM50 0h100v100h100v100H150v500H50V0Z"/><glyph glyph-name="X" unicode="X" horiz-adv-x="600" d="M150 500h100V400h100V300h100V0h100v300H450v100H350v100H250v100H150v100H50V600h100V500ZM50 0h100v300H50V0Zm100 300h100v100H150V300Zm200 200h100v100H350V500Zm100 100h100v100H450V600Z"/><glyph glyph-name="Y" unicode="Y" horiz-adv-x="600" d="M150 500h100V0h100v500H250v100H150v100H50V600h100V500Zm200 0h100v100H350V500Zm100 100h100v100H450V600Z"/><glyph glyph-name="Z" unicode="Z" horiz-adv-x="600" d="M50 600h400V500h100v200H50V600Zm300-200h100v100H350V400ZM250 300h100v100H250V300ZM150 200h100v100H150V200ZM50 0h500v100H150v100H50V0Z"/><glyph glyph-name="bracketleft" unicode="[" horiz-adv-x="400" d="M50 0h300v100H150v500h200v100H50V0Z"/><glyph glyph-name="backslash" unicode="\" horiz-adv-x="600" d="M150 400h100V300h100V100h100V0h100v100H450v200H350v100H250v200H150v100H50V600h100V400Z"/><glyph glyph-name="bracketright" unicode="]" horiz-adv-x="400" d="M50 600h200V100H50V0h300v700H50V600Z"/><glyph glyph-name="asciicircum" unicode="^" horiz-adv-x="600" d="M350 500h100V400h100v100H450v100H350v100H250V600h100V500ZM50 400h100v100H50V400Zm100 100h100v100H150V500Z"/><glyph glyph-name="underscore" unicode="_" horiz-adv-x="600" d="M50-100h500V0H50v-100Z"/><glyph glyph-name="grave" unicode="`" horiz-adv-x="300" d="M150 500h100v100H150v100H50V600h100V500Z"/><glyph glyph-name="a" unicode="a" horiz-adv-x="600" d="M450 300H150V200h300V100H150v100H50V100h100V0h400v400H450v100H150V400h300V300Z"/><glyph glyph-name="b" unicode="b" horiz-adv-x="600" d="M50 0h400v100H150v200h100v100H150v300H50V0Zm400 100h100v300H450v100H250V400h200V100Z"/><glyph glyph-name="c" unicode="c" horiz-adv-x="600" d="M150 0h300v100H150v300H50V100h100V0Zm300 300h100v100H450v100H150V400h300V300Zm0-200h100v100H450V100Z"/><glyph glyph-name="d" unicode="d" horiz-adv-x="600" d="M150 400h200V300h100V100H150v300H50V100h100V0h400v700H450V400H350v100H150V400Z"/><glyph glyph-name="e" unicode="e" horiz-adv-x="600" d="M50 100h100V0h400v100H150v100h400v200H450v100H150V400H50V100Zm100 300h300V300H150v100Z"/><glyph glyph-name="f" unicode="f" horiz-adv-x="500" d="M250 600h200v100H250V600ZM150 500H50V400h100V0h100v400h200v100H250v100H150V500Z"/><glyph glyph-name="g" unicode="g" horiz-adv-x="600" d="M50 200h100V100h300V0h100v500H150V400H50V200Zm100 200h300V200H150v200ZM50-100h400V0H50v-100Z"/><glyph glyph-name="h" unicode="h" horiz-adv-x="600" d="M50 0h100v300h100v100H150v300H50V0Zm400 0h100v400H450v100H250V400h200V0Z"/><glyph glyph-name="i" unicode="i" horiz-adv-x="200" d="M50 600h100v100H50V600ZM50 0h100v500H50V0Z"/><glyph glyph-name="j" unicode="j" horiz-adv-x="600" d="M450 0h100v500H450V0ZM150-100h300V0H150v200H50V0h100v-100Zm300 700h100v100H450V600Z"/><glyph glyph-name="k" unicode="k" horiz-adv-x="500" d="M250 100h100V0h100v100H350v100H250v100H150v400H50V0h100v200h100V100Zm0 200h100v100H250V300Zm100 100h100v100H350V400Z"/><glyph glyph-name="l" unicode="l" horiz-adv-x="300" d="M150 0h100v100H150v600H50V100h100V0Z"/><glyph glyph-name="m" unicode="m" horiz-adv-x="600" d="M250 200h100v200H250v100H50V0h100v400h100V200ZM450 0h100v400H450v100H350V400h100V0Z"/><glyph glyph-name="n" unicode="n" horiz-adv-x="600" d="M450 0h100v400H450v100H50V0h100v400h300V0Z"/><glyph glyph-name="o" unicode="o" horiz-adv-x="600" d="M450 100h100v300H450v100H150V400h300V100ZM150 0h300v100H150v300H50V100h100V0Z"/><glyph glyph-name="p" unicode="p" horiz-adv-x="600" d="M50-100h100v200h300v100H150v100h100v100H150v100H50v-600Zm400 300h100v200H450v100H250V400h200V200Z"/><glyph glyph-name="q" unicode="q" horiz-adv-x="600" d="M50 200h100V100h300v-200h100v600H450V400H350v100H150V400H50V200Zm100 200h200V300h100V200H150v200Z"/><glyph glyph-name="r" unicode="r" horiz-adv-x="600" d="M50 0h100v300h100v100H150v100H50V0Zm400 300h100v100H450v100H250V400h200V300Z"/><glyph glyph-name="s" unicode="s" horiz-adv-x="600" d="M150 200h300V100h100v100H450v100H150v100H50V300h100V200ZM50 0h400v100H50V0Zm100 400h400v100H150V400Z"/><glyph glyph-name="t" unicode="t" horiz-adv-x="400" d="M250 0h100v100H250v300h100v100H250v200H150V500H50V400h100V100h100V0Z"/><glyph glyph-name="u" unicode="u" horiz-adv-x="600" d="M450 100H150v400H50V100h100V0h400v500H450V100Z"/><glyph glyph-name="v" unicode="v" horiz-adv-x="600" d="M150 100h100V0h100v100H250v100H150v300H50V200h100V100Zm300 100h100v300H450V200ZM350 100h100v100H350V100Z"/><glyph glyph-name="w" unicode="w" horiz-adv-x="600" d="M450 100H350v200H250V100H150v400H50V100h100V0h400v500H450V100Z"/><glyph glyph-name="x" unicode="x" horiz-adv-x="600" d="M150 300h100V200h100V100h100V0h100v100H450v100H350v100H250v100H150v100H50V400h100V300ZM50 0h100v100H50V0Zm100 100h100v100H150V100Zm200 200h100v100H350V300Zm100 100h100v100H450V400Z"/><glyph glyph-name="y" unicode="y" horiz-adv-x="600" d="M450 200H150v300H50V200h100V100h300V0h100v500H450V200Zm0-300V0H50v-100h400Z"/><glyph glyph-name="z" unicode="z" horiz-adv-x="600" d="M50 400h300V300h100v100h100v100H50V400Zm200-200h100v100H250V200ZM150 100H50V0h500v100H250v100H150V100Z"/><glyph glyph-name="braceleft" unicode="{" horiz-adv-x="500" d="M150 100h100V0h100v100H250v200H150v100H50V300h100V100Zm0 300h100v200H150V400Zm100 200h100v100H250V600Z"/><glyph glyph-name="bar" unicode="|" horiz-adv-x="200" d="M50-100h100v900H50v-900Z"/><glyph glyph-name="braceright" unicode="}" horiz-adv-x="500" d="M250 400h100V300h100v100H350v200H250v100H150V600h100V400Zm0-300h100v200H250V100ZM150 0h100v100H150V0Z"/><glyph glyph-name="asciitilde" unicode="~" horiz-adv-x="700" d="M350 500h200v100H350v100H150V600h200V500Zm-300 0h100v100H50V500Zm500 100h100v100H550V600Z"/><glyph glyph-name="uni00A0" horiz-adv-x="500"/><glyph glyph-name="exclamdown" unicode="¡" horiz-adv-x="200" d="M50 500h100v100H50V500Zm0-600h100v500H50v-500Z"/><glyph glyph-name="cent" unicode="¢" horiz-adv-x="600" d="M150 400H50V100h100V0h100v-100h100V0h100v100H150v300Zm300 100H350v100H250V500H150V400h300V300h100v100H450v100Zm0-400h100v100H450V100Z"/><glyph glyph-name="sterling" unicode="£" horiz-adv-x="600" d="M150 400H50V300h100V100H50V0h500v100H250v200h200v100H250v200H150V400Zm300 100h100v100H450v100H250V600h200V500Z"/><glyph glyph-name="yen" unicode="¥" horiz-adv-x="600" d="M150 500h100V400H150V300h100V200H150V100h100V0h100v100h100v100H350v100h100v100H350v100H250v100H150v100H50V600h100V500Zm200 0h100v100H350V500Zm100 100h100v100H450V600Z"/><glyph glyph-name="brokenbar" unicode="¦" horiz-adv-x="200" d="M50-100h100v350H50v-350Zm100 900H50V450h100v350Z"/><glyph glyph-name="section" unicode="§" horiz-adv-x="600" d="M50 300h100V200h300V100h100v100H450v100H150v100H50V300Zm100 100h300V300h100v100H450v100H150v100H50V500h100V400Zm0 200h400v100H150V600ZM50 0h400v100H50V0Z"/><glyph glyph-name="dieresis" unicode="¨" horiz-adv-x="400" d="M350 700H250V600h100v100Zm-200 0H50V600h100v100Z"/><glyph glyph-name="copyright" unicode="©" horiz-adv-x="800" d="M650 100h100v500H650v100H150V600h500V100ZM150 0h500v100H150v500H50V100h100V0Zm200 200h200v100H350v100H250V300h100V200Zm0 200h200v100H350V400Z"/><glyph glyph-name="ordfeminine" unicode="ª" horiz-adv-x="400" d="M250 500H50V300h100v100h100V300h100v300H250v100H50V600h200V500ZM50 100h300v100H50V100Z"/><glyph glyph-name="guillemotleft" unicode="«" horiz-adv-x="700" d="M250 200H150v100H50V200h100V100h100V0h100v100H250v100Zm300 0H450v100H350V200h100V100h100V0h100v100H550v100ZM350 500H250V400h100v100Zm200-100H450V300h100v100Zm-300 0H150V300h100v100Zm400 100H550V400h100v100Z"/><glyph glyph-name="logicalnot" unicode="¬" horiz-adv-x="600" d="M550 400H50V300h400V100h100v300Z"/><glyph glyph-name="uni00AD" unicode="­" horiz-adv-x="400" d="M50 300h300v100H50V300Z"/><glyph glyph-name="registered" unicode="®" horiz-adv-x="800" d="M450 300h100V200h100v100H550v100H450v100H350v100h100V500h100v100H450v100H250v100H150V700h100V300h100v100h100V300Zm300 400H650v100H550V700h100V300h100v400ZM150 200h100v100H150v400H50V300h100V200Z"/><glyph glyph-name="macron" unicode="¯" horiz-adv-x="400" d="M50 600h300v100H50V600Z"/><glyph glyph-name="degree" unicode="°" horiz-adv-x="500" d="M350 400h100v200H350v100H150V600h200V400ZM150 300h200v100H150v200H50V400h100V300Z"/><glyph glyph-name="plusminus" unicode="±" horiz-adv-x="600" d="M50 0h500v100H350v200h200v100H350v200H250V400H50V300h200V100H50V0Z"/><glyph glyph-name="acute" unicode="´" horiz-adv-x="300" d="M250 700H150V600h100v100ZM150 600H50V500h100v100Z"/><glyph glyph-name="paragraph" unicode="¶" horiz-adv-x="600" d="M150 600H50V500h100V400h100v-500h100v500h100v-500h100v800H150V600Zm300-100H350v100h100V500Z"/><glyph glyph-name="periodcentered" unicode="·" horiz-adv-x="200" d="M50 300h100v100H50V300Z"/><glyph glyph-name="cedilla" unicode="¸" horiz-adv-x="300" d="M200 0H100v-100h100V0Z"/><glyph glyph-name="ordmasculine" unicode="º" horiz-adv-x="400" d="M250 400h100v200H250v100H150V600h100V400ZM50 100h300v100H50V100Zm100 200h100v100H150v200H50V400h100V300Z"/><glyph glyph-name="guillemotright" unicode="»" horiz-adv-x="700" d="M150 400V300h100V200h100v100H250v100H150v100H50V400h100Zm300 0V300h100V200h100v100H550v100H450v100H350V400h100ZM50 100V0h100v100H50Zm400 100V100h100v100H450Zm-300 0V100h100v100H150Zm200-100V0h100v100H350Z"/><glyph glyph-name="questiondown" unicode="¿" horiz-adv-x="600" d="M150 200H50V0h100v-100h300V0H150v200Zm200 400H250V500h100v100Zm0-200H250V300h100v100ZM250 300H150V200h100v100Zm300-200H450V0h100v100Z"/><glyph glyph-name="Agrave" unicode="À" horiz-adv-x="600" d="M50 0h100v400h300V0h100v600H450v100H350v100H250v100H150V800h100V700H150V600H50V0Zm100 600h300V500H150v100Z"/><glyph glyph-name="Aacute" unicode="Á" horiz-adv-x="600" d="M50 0h100v400h300V0h100v600H450v100H350v100H250V700H150V600H50V0Zm100 600h300V500H150v100Zm300 300H350V800h100v100Z"/><glyph glyph-name="Acircumflex" unicode="Â" horiz-adv-x="600" d="M50 0h100v400h300V0h100v600H450v200H350v100H250V800h100V700H250v100H150V600H50V0Zm100 600h300V500H150v100Z"/><glyph glyph-name="Atilde" unicode="Ã" horiz-adv-x="600" d="M50 0h100v400h300V0h100v600H450v100H350v100H250v100H150V800h100V700H150v100H50V700h100V600H50V0Zm100 600h300V500H150v100Zm300 300H350V800h100v100Z"/><glyph glyph-name="Adieresis" unicode="Ä" horiz-adv-x="600" d="M50 0h100v400h300V0h100v600H450v100H150V600H50V0Zm100 600h300V500H150v100Zm300 300H350V800h100v100Zm-200 0H150V800h100v100Z"/><glyph glyph-name="Aring" unicode="Å" horiz-adv-x="600" d="M50 0h100v400h300V0h100v600H450v100h50v100H400v100H200V800h200V700H200v100H100V700h50V600h300V500H150v100H50V0Z"/><glyph glyph-name="AE" unicode="Æ" horiz-adv-x="800" d="M50 0h100v400h200V0h400v100H450v300h200v100H450v100h300v100H150V600h200V500H150v100H50V0Z"/><glyph glyph-name="Ccedilla" unicode="Ç" horiz-adv-x="600" d="M150 0h100v-100h100V0h100v100H150v500H50V100h100V0Zm300 500h100v100H450v100H150V600h300V500Zm0-400h100v100H450V100Z"/><glyph glyph-name="Egrave" unicode="È" horiz-adv-x="600" d="M50 0h500v100H150v300h200v100H150v100h400v100H50V0Zm250 700h100v100H300v100H200V800h100V700Z"/><glyph glyph-name="Eacute" unicode="É" horiz-adv-x="600" d="M50 0h500v100H150v300h200v100H150v100h400v100H50V0Zm400 900H350V800h100v100ZM350 800H250V700h100v100Z"/><glyph glyph-name="Ecircumflex" unicode="Ê" horiz-adv-x="600" d="M50 0h500v100H150v300h200v100H150v100h400v100H50V0Zm400 800H350v100H250V800h100V700h100v100Zm-200 0H150V700h100v100Z"/><glyph glyph-name="Edieresis" unicode="Ë" horiz-adv-x="600" d="M50 0h500v100H150v300h200v100H150v100h400v100H50V0Zm400 900H350V800h100v100Zm-200 0H150V800h100v100Z"/><glyph glyph-name="Igrave" unicode="Ì" horiz-adv-x="400" d="M50 800h100V700H50V600h100V100H50V0h300v100H250v500h100v100H250v100H150v100H50V800Z"/><glyph glyph-name="Iacute" unicode="Í" horiz-adv-x="400" d="M250 800H150V700H50V600h100V100H50V0h300v100H250v500h100v100H250v100Zm100 100H250V800h100v100Z"/><glyph glyph-name="Icircumflex" unicode="Î" horiz-adv-x="400" d="M350 800H250v100H150V800h100V700H150v100H50V600h100V100H50V0h300v100H250v500h100v200Z"/><glyph glyph-name="Idieresis" unicode="Ï" horiz-adv-x="400" d="M50 600h100V100H50V0h300v100H250v500h100v100H50V600Zm300 300H250V800h100v100Zm-200 0H50V800h100v100Z"/><glyph glyph-name="Eth" unicode="Ð" horiz-adv-x="650" d="M500 100h100v500H500v100H100V400H0V300h100V0h400v100Zm0 0H200v200h100v100H200v200h300V100Z"/><glyph glyph-name="Ntilde" unicode="Ñ" horiz-adv-x="600" d="M250 400h100V300h100V0h100v700H450v100H350v100H250V800h100V700h100V400H350v100H250v100H150v100H50V0h100v500h100V400Zm300 500H450V800h100v100ZM250 800H150V700h100v100Z"/><glyph glyph-name="Ograve" unicode="Ò" horiz-adv-x="600" d="M450 100h100v500H450v100H350v100H250v100H150V800h100V700H150V600h300V100Zm-400 0h100V0h300v100H150v500H50V100Z"/><glyph glyph-name="Oacute" unicode="Ó" horiz-adv-x="600" d="M450 100h100v500H450v100H350v100H250V700H150V600h300V100Zm-400 0h100V0h300v100H150v500H50V100Zm400 800H350V800h100v100Z"/><glyph glyph-name="Ocircumflex" unicode="Ô" horiz-adv-x="600" d="M450 100h100v500H450v200H350v100H250V800h100V700H250v100H150V600h300V100ZM150 0h300v100H150v500H50V100h100V0Z"/><glyph glyph-name="Otilde" unicode="Õ" horiz-adv-x="600" d="M450 100h100v600H450v200H350v100H250V900h100V800H250v100H150V700h300V100ZM150 0h300v100H150v600H50V100h100V0Zm400 1000H450V900h100v100Z"/><glyph glyph-name="Odieresis" unicode="Ö" horiz-adv-x="600" d="M450 100h100v500H450v100H150V600h300V100ZM150 0h300v100H150v500H50V100h100V0Zm300 900H350V800h100v100Zm-200 0H150V800h100v100Z"/><glyph glyph-name="multiply" unicode="×" horiz-adv-x="600" d="M150 400h100V300h100V200h100V100h100v100H450v100H350v100H250v100H150v100H50V500h100V400ZM50 100h100v100H50V100Zm100 100h100v100H150V200Zm200 200h100v100H350V400Zm100 100h100v100H450V500Z"/><glyph glyph-name="Oslash" unicode="Ø" horiz-adv-x="600" d="M150 600H50V100h100V0h300v100H250v200H150v300Zm0 0h200V400h100V100h100v500H450v100H150V600Zm100-300h100v100H250V300Z"/><glyph glyph-name="Ugrave" unicode="Ù" horiz-adv-x="600" d="M150 0h300v100H150v600H50V100h100V0Zm300 100h100v600H450V100ZM250 700h100v100H250v100H150V800h100V700Z"/><glyph glyph-name="Uacute" unicode="Ú" horiz-adv-x="600" d="M150 0h300v100H150v600H50V100h100V0Zm300 100h100v600H450V100Zm0 800H350V800h100v100ZM350 800H250V700h100v100Z"/><glyph glyph-name="Ucircumflex" unicode="Û" horiz-adv-x="600" d="M150 0h300v100H150v600H50V100h100V0Zm300 800H350v100H250V800h100V700h100V100h100v600H450v100Zm-200 0H150V700h100v100Z"/><glyph glyph-name="Udieresis" unicode="Ü" horiz-adv-x="600" d="M150 0h300v100H150v600H50V100h100V0Zm300 100h100v600H450V100Zm0 800H350V800h100v100Zm-200 0H150V800h100v100Z"/><glyph glyph-name="Yacute" unicode="Ý" horiz-adv-x="600" d="M150 500h100V0h100v500H250v100H150v100H50V600h100V500Zm200 0h100v100H350V500Zm100 100h100v100H450V600Zm0 300H350V800h100v100ZM350 800H250V700h100v100Z"/><glyph glyph-name="Thorn" unicode="Þ" horiz-adv-x="600" d="M450 200v100H150v100h300V300h100v100H450v100H150v200H50V0h100v200h300Z"/><glyph glyph-name="germandbls" unicode="ß" horiz-adv-x="500" d="M50 0h100v300h200V100h100v200H350v100H150v200H50V0Zm100 600h200V400h100v200H350v100H150V600ZM250 0h100v100H250V0Z"/><glyph glyph-name="agrave" unicode="à" horiz-adv-x="600" d="M450 300H150V200h300V100H150v100H50V100h100V0h400v400H450v100H350v100H250v100H150V600h100V500H150V400h300V300Z"/><glyph glyph-name="aacute" unicode="á" horiz-adv-x="600" d="M450 300H150V200h300V100H150v100H50V100h100V0h400v400H450v100H350v100H250V500H150V400h300V300Zm0 400H350V600h100v100Z"/><glyph glyph-name="acircumflex" unicode="â" horiz-adv-x="600" d="M450 300H150V200h300V100H150v100H50V100h100V0h400v400H450v200H350v100H250V600h100V500H250v100H150V400h300V300Z"/><glyph glyph-name="atilde" unicode="ã" horiz-adv-x="600" d="M450 300H150V200h300V100H150v100H50V100h100V0h400v400H450v200H350v100H250V600h100V500H250v100H150V400h300V300Zm100 400H450V600h100v100Z"/><glyph glyph-name="adieresis" unicode="ä" horiz-adv-x="600" d="M450 300H150V200h300V100H150v100H50V100h100V0h400v400H450v100H150V400h300V300ZM250 700H150V600h100v100Zm200 0H350V600h100v100Z"/><glyph glyph-name="aring" unicode="å" horiz-adv-x="600" d="M150 400h300V300H150V200h300V100H150v100H50V100h100V0h400v400H450v100H250v100H150V400Zm400 100v100H450v100H250V600h200V500h100Z"/><glyph glyph-name="ae" unicode="æ" horiz-adv-x="800" d="M150 300V200h200V100h100V0h300v100H450v100h300v200H650v100H450V400h200V300H450v100H350V300H150Zm0-200V0h200v100H150v100H50V100h100Zm200 300v100H150V400h200Z"/><glyph glyph-name="ccedilla" unicode="ç" horiz-adv-x="600" d="M150 0h100v-100h100V0h100v100H150v300H50V100h100V0Zm300 300h100v100H450v100H150V400h300V300Zm0-200h100v100H450V100Z"/><glyph glyph-name="egrave" unicode="è" horiz-adv-x="600" d="M50 100h100V0h400v100H150v100h400v200H450v100H150V400H50V100Zm100 300h300V300H150v100Zm100 100h100v100H250v100H150V600h100V500Z"/><glyph glyph-name="eacute" unicode="é" horiz-adv-x="600" d="M50 100h100V0h400v100H150v100h400v200H450v100H150V400H50V100Zm100 300h300V300H150v100Zm300 300H350V600h100v100ZM350 600H250V500h100v100Z"/><glyph glyph-name="ecircumflex" unicode="ê" horiz-adv-x="600" d="M50 100h100V0h400v100H150v100h400v200H450v100H150V400H50V100Zm100 300h300V300H150v100Zm300 200H350v100H250V600h100V500h100v100Zm-200 0H150V500h100v100Z"/><glyph glyph-name="edieresis" unicode="ë" horiz-adv-x="600" d="M50 100h100V0h400v100H150v100h400v200H450v100H150V400H50V100Zm100 300h300V300H150v100Zm300 300H350V600h100v100Zm-200 0H150V600h100v100Z"/><glyph glyph-name="igrave" unicode="ì" horiz-adv-x="200" d="M50 0h100v500H50V0Zm50 500h100v100H100v100H0V600h100V500Z"/><glyph glyph-name="iacute" unicode="í" horiz-adv-x="200" d="M50 0h100v500H50V0Zm150 700H100V600h100v100ZM100 600H0V500h100v100Z"/><glyph glyph-name="icircumflex" unicode="î" horiz-adv-x="200" d="M50 0h100v500H50v100H-50V500H50V0Zm200 600H150v100H50V600h100V500h100v100Z"/><glyph glyph-name="idieresis" unicode="ï" horiz-adv-x="200" d="M50 0h100v500H50V0Zm200 700H150V600h100v100Zm-200 0H-50V600H50v100Z"/><glyph glyph-name="eth" unicode="ð" horiz-adv-x="600" d="M450 600H350v100H150V600h200V500h100V300H150V200h300V100h100v400H450v100ZM150 200H50V100h100V0h300v100H150v100Zm400 500H450V600h100v100ZM350 500H250V400h100v100Z"/><glyph glyph-name="ntilde" unicode="ñ" horiz-adv-x="600" d="M450 0h100v400H450v200H350v100H250V600h100V500H250v100H150V500H50V0h100v400h300V0Zm100 700H450V600h100v100Z"/><glyph glyph-name="ograve" unicode="ò" horiz-adv-x="600" d="M450 100h100v300H450v100H350v100H250v100H150V600h100V500H150V400h300V100Zm-400 0h100V0h300v100H150v300H50V100Z"/><glyph glyph-name="oacute" unicode="ó" horiz-adv-x="600" d="M450 100h100v300H450v100H350v100H250V500H150V400h300V100ZM150 0h300v100H150v300H50V100h100V0Zm300 700H350V600h100v100Z"/><glyph glyph-name="ocircumflex" unicode="ô" horiz-adv-x="600" d="M450 100h100v300H450v200H350v100H250V600h100V500H250v100H150V400h300V100ZM150 0h300v100H150v300H50V100h100V0Z"/><glyph glyph-name="otilde" unicode="õ" horiz-adv-x="600" d="M450 100h100v300H450v200H350v100H250V600h100V500H250v100H150V400h300V100ZM150 0h300v100H150v300H50V100h100V0Zm400 700H450V600h100v100Z"/><glyph glyph-name="odieresis" unicode="ö" horiz-adv-x="600" d="M450 100h100v300H450v100H150V400h300V100ZM150 0h300v100H150v300H50V100h100V0Zm300 700H350V600h100v100Zm-200 0H150V600h100v100Z"/><glyph glyph-name="divide" unicode="÷" horiz-adv-x="600" d="M50 400V300h500v100H50Zm200-300h100v100H250V100Zm0 400h100v100H250V500Z"/><glyph glyph-name="oslash" unicode="ø" horiz-adv-x="600" d="M150 400h200V300h100V100h100v300H450v100H150V400ZM50 100h100V0h300v100H250v100H150v200H50V100Zm200 100h100v100H250V200Z"/><glyph glyph-name="ugrave" unicode="ù" horiz-adv-x="600" d="M450 100H150v400H50V100h100V0h400v500H450V100ZM300 500h100v100H300v100H200V600h100V500Z"/><glyph glyph-name="uacute" unicode="ú" horiz-adv-x="600" d="M450 100H150v400H50V100h100V0h400v500H450V100ZM300 600H200V500h100v100Zm100 100H300V600h100v100Z"/><glyph glyph-name="ucircumflex" unicode="û" horiz-adv-x="600" d="M450 600H350v100H250V600h100V500h100V100H150v400H50V100h100V0h400v500H450v100Zm-200 0H150V500h100v100Z"/><glyph glyph-name="udieresis" unicode="ü" horiz-adv-x="600" d="M450 100H150v400H50V100h100V0h400v500H450V100ZM150 600h100v100H150V600Zm200 0h100v100H350V600Z"/><glyph glyph-name="yacute" unicode="ý" horiz-adv-x="600" d="M450 200H150v300H50V200h100V100h300V0h100v500H450V200Zm0-300V0H50v-100h400Zm0 800H350V600h100v100ZM350 600H250V500h100v100Z"/><glyph glyph-name="thorn" unicode="þ" horiz-adv-x="600" d="M150 400h300V200h100v200H450v100H150v200H50v-800h100v200h300v100H150v200Z"/><glyph glyph-name="ydieresis" unicode="ÿ" horiz-adv-x="600" d="M450 200H150v300H50V200h100V100h300V0h100v500H450V200Zm0-300V0H50v-100h400Zm0 800H350V600h100v100Zm-200 0H150V600h100v100Z"/><glyph glyph-name="Amacron" unicode="Ā" horiz-adv-x="600" d="M50 0h100v400h300V0h100v600H450v100H150V600H50V0Zm100 600h300V500H150v100Zm0 200h300v100H150V800Z"/><glyph glyph-name="amacron" unicode="ā" horiz-adv-x="600" d="M450 300H150V200h300V100H150v100H50V100h100V0h400v400H450v100H150V400h300V300ZM150 600h300v100H150V600Z"/><glyph glyph-name="Abreve" unicode="Ă" horiz-adv-x="600" d="M50 0h100v400h300V0h100v600H450v100H150V600H50V0Zm100 600h300V500H150v100Zm50 100h200v100H200v100H100V800h100V700Zm200 100h100v100H400V800Z"/><glyph glyph-name="abreve" unicode="ă" horiz-adv-x="600" d="M450 300H150V200h300V100H150v100H50V100h100V0h400v400H450v100H150V400h300V300ZM200 500h200v100H200v100H100V600h100V500Zm200 100h100v100H400V600Z"/><glyph glyph-name="Aogonek" unicode="Ą" horiz-adv-x="600" d="M150 600h300V500H150v100H50V0h100v400h300V0h100v600H450v100H150V600ZM450 0H350v-100h100V0Z"/><glyph glyph-name="aogonek" unicode="ą" horiz-adv-x="600" d="M450 300H150V200h300V100H150v100H50V100h100V0h200v-100h100V0h100v400H450v100H150V400h300V300Z"/><glyph glyph-name="Cacute" unicode="Ć" horiz-adv-x="600" d="M150 0h300v100H150v500H50V100h100V0Zm300 500h100v100H450v100H150V600h300V500Zm0-400h100v100H450V100Zm0 800H350V800h100v100ZM350 800H250V700h100v100Z"/><glyph glyph-name="cacute" unicode="ć" horiz-adv-x="600" d="M150 0h300v100H150v300H50V100h100V0Zm300 300h100v100H450v100H150V400h300V300Zm0-200h100v100H450V100Zm0 600H350V600h100v100ZM350 600H250V500h100v100Z"/><glyph glyph-name="Ccircumflex" unicode="Ĉ" horiz-adv-x="600" d="M150 0h300v100H150v500H50V100h100V0Zm300 500h100v100H450v100H150V600h300V500Zm0-400h100v100H450V100Zm0 700H350v100H250V800h100V700h100v100Zm-200 0H150V700h100v100Z"/><glyph glyph-name="ccircumflex" unicode="ĉ" horiz-adv-x="600" d="M150 0h300v100H150v300H50V100h100V0Zm300 300h100v100H450v100H150V400h300V300Zm0-200h100v100H450V100Zm0 500H350v100H250V600h100V500h100v100Zm-200 0H150V500h100v100Z"/><glyph glyph-name="Cdotaccent" unicode="Ċ" horiz-adv-x="600" d="M150 0h300v100H150v500H50V100h100V0Zm300 500h100v100H450v100H150V600h300V500Zm0-400h100v100H450V100ZM250 800h100v100H250V800Z"/><glyph glyph-name="cdotaccent" unicode="ċ" horiz-adv-x="600" d="M150 0h300v100H150v300H50V100h100V0Zm300 300h100v100H450v100H150V400h300V300Zm0-200h100v100H450V100ZM250 600h100v100H250V600Z"/><glyph glyph-name="Ccaron" unicode="Č" horiz-adv-x="600" d="M150 0h300v100H150v500H50V100h100V0Zm300 500h100v100H450v100H150V600h300V500Zm0-400h100v100H450V100ZM250 900H150V800h100V700h100v100H250v100Zm200 0H350V800h100v100Z"/><glyph glyph-name="ccaron" unicode="č" horiz-adv-x="600" d="M150 0h300v100H150v300H50V100h100V0Zm300 300h100v100H450v100H150V400h300V300Zm0-200h100v100H450V100ZM250 700H150V600h100V500h100v100H250v100Zm200 0H350V600h100v100Z"/><glyph glyph-name="Dcaron" unicode="Ď" horiz-adv-x="600" d="M450 100h100v500H450v100H50V0h400v100H150v500h300V100ZM250 900H150V800h100V700h100v100H250v100Zm200 0H350V800h100v100Z"/><glyph glyph-name="dcaron" unicode="ď" horiz-adv-x="800" d="M650 550h100v200H650V550ZM150 400h200V300h100V100H150v300H50V100h100V0h400v700H450V400H350v100H150V400Z"/><glyph glyph-name="Dcroat" unicode="Đ" horiz-adv-x="650" d="M500 100h100v500H500v100H100V400H0V300h100V0h400v100Zm0 0H200v200h100v100H200v200h300V100Z"/><glyph glyph-name="dcroat" unicode="đ" horiz-adv-x="650" d="M150 300H50V100h100V0h400v500h100v100H550v100H450V600H250V500h200V300H350v100H150V300Zm0 0h200V200h100V100H150v200Z"/><glyph glyph-name="Emacron" unicode="Ē" horiz-adv-x="600" d="M50 0h500v100H150v300h200v100H150v100h400v100H50V0Zm100 800h300v100H150V800Z"/><glyph glyph-name="emacron" unicode="ē" horiz-adv-x="600" d="M50 100h100V0h400v100H150v100h400v200H450v100H150V400H50V100Zm100 300h300V300H150v100Zm0 200h300v100H150V600Z"/><glyph glyph-name="Ebreve" unicode="Ĕ" horiz-adv-x="600" d="M50 0h500v100H150v300h200v100H150v100h400v100H50V0Zm150 700h200v100H200v100H100V800h100V700Zm200 100h100v100H400V800Z"/><glyph glyph-name="ebreve" unicode="ĕ" horiz-adv-x="600" d="M50 100h100V0h400v100H150v100h400v200H450v100H150V400H50V100Zm100 300h300V300H150v100Zm50 100h200v100H200v100H100V600h100V500Zm200 100h100v100H400V600Z"/><glyph glyph-name="Edotaccent" unicode="Ė" horiz-adv-x="600" d="M50 0h500v100H150v300h200v100H150v100h400v100H50V0Zm200 800h100v100H250V800Z"/><glyph glyph-name="edotaccent" unicode="ė" horiz-adv-x="600" d="M50 100h100V0h400v100H150v100h400v200H450v100H150V400H50V100Zm100 300h300V300H150v100Zm100 200h100v100H250V600Z"/><glyph glyph-name="Eogonek" unicode="Ę" horiz-adv-x="600" d="M50 0h300v-100h100V0h100v100H150v300h200v100H150v100h400v100H50V0Z"/><glyph glyph-name="eogonek" unicode="ę" horiz-adv-x="600" d="M150 400h300V300H150v100H50V100h100V0h250v-100h100V0h50v100H150v100h400v200H450v100H150V400Z"/><glyph glyph-name="Ecaron" unicode="Ě" horiz-adv-x="600" d="M50 0h500v100H150v300h200v100H150v100h400v100H50V0Zm200 900H150V800h100V700h100v100H250v100Zm200 0H350V800h100v100Z"/><glyph glyph-name="ecaron" unicode="ě" horiz-adv-x="600" d="M50 100h100V0h400v100H150v100h400v200H450v100H150V400H50V100Zm100 300h300V300H150v100Zm100 300H150V600h100V500h100v100H250v100Zm200 0H350V600h100v100Z"/><glyph glyph-name="Gcircumflex" unicode="Ĝ" horiz-adv-x="600" d="M150 0h300v100H150v500H50V100h100V0Zm200 400h100V100h100v400H350V400ZM150 600h400v100H150V600Zm300 200H350v100H250V800h100V700h100v100Zm-200 0H150V700h100v100Z"/><glyph glyph-name="gcircumflex" unicode="ĝ" horiz-adv-x="600" d="M50 200h100V100h300V0h100v500H150V400H50V200Zm100 200h300V200H150v200ZM50-100h400V0H50v-100Zm400 700H350v100H250V600h100V500h100v100Zm-200 0H150V500h100v100Z"/><glyph glyph-name="Gbreve" unicode="Ğ" horiz-adv-x="600" d="M150 0h300v100H150v500H50V100h100V0Zm200 400h100V100h100v400H350V400ZM150 600h400v100H150V600Zm50 100h200v100H200v100H100V800h100V700Zm200 100h100v100H400V800Z"/><glyph glyph-name="gbreve" unicode="ğ" horiz-adv-x="600" d="M50 200h100V100h300V0h100v500H150V400H50V200Zm100 200h300V200H150v200ZM50-100h400V0H50v-100Zm150 600h200v100H200v100H100V600h100V500Zm200 100h100v100H400V600Z"/><glyph glyph-name="Gdotaccent" unicode="Ġ" horiz-adv-x="600" d="M150 0h300v100H150v500H50V100h100V0Zm200 400h100V100h100v400H350V400ZM150 600h400v100H150V600Zm100 200h100v100H250V800Z"/><glyph glyph-name="gdotaccent" unicode="ġ" horiz-adv-x="600" d="M50 200h100V100h300V0h100v500H150V400H50V200Zm100 200h300V200H150v200ZM50-100h400V0H50v-100Zm200 700h100v100H250V600Z"/><glyph glyph-name="Gcommaaccent" unicode="Ģ" horiz-adv-x="600" d="M150 0h300v100H150v500H50V100h100V0Zm200 400h100V100h100v400H350V400ZM150 600h400v100H150V600Zm100-700h100V0H250v-100Z"/><glyph glyph-name="gcommaaccent" unicode="ģ" horiz-adv-x="600" d="M150 400h300V200H150v200H50V200h100V100h300V0h100v500H350v100H250V500H150V400ZM50-100h400V0H50v-100Zm400 800H350V600h100v100Z"/><glyph glyph-name="Hcircumflex" unicode="Ĥ" horiz-adv-x="600" d="M50 0h100v400h300V0h100v700H450V500H150v200H50V0Zm400 800H350v100H250V800h100V700h100v100Zm-200 0H150V700h100v100Z"/><glyph glyph-name="hcircumflex" unicode="ĥ" horiz-adv-x="600" d="M50 0h100v300h100v100H150v300H50V0Zm400 0h100v400H450v100H250V400h200V0Zm0 800H350v100H250V800h100V700h100v100Zm-200 0H150V700h100v100Z"/><glyph glyph-name="Hbar" unicode="Ħ" horiz-adv-x="800" d="M50 500h100V0h100v300h300V0h100v500h100v100H650v100H550V600H250v100H150V600H50V500Zm200-100v100h300V400H250Z"/><glyph glyph-name="hbar" unicode="ħ" horiz-adv-x="650" d="M0 500h100V0h100v200h100v100H200v200h200v100H200v100H100V600H0V500ZM500 0h100v300H500v100H300V300h200V0Z"/><glyph glyph-name="Itilde" unicode="Ĩ" horiz-adv-x="400" d="M50 600h100V100H50V0h300v100H250v500h100v100H50V600Zm300 200H250v100H150V800h100V700h100v100Zm100 100H350V800h100v100ZM150 800H50V700h100v100Z"/><glyph glyph-name="itilde" unicode="ĩ" horiz-adv-x="200" d="M50 0h100v500H50V0Zm200 600H150v100H50V600h100V500h100v100Zm100 100H250V600h100v100ZM50 600H-50V500H50v100Z"/><glyph glyph-name="Imacron" unicode="Ī" horiz-adv-x="400" d="M50 600h100V100H50V0h300v100H250v500h100v100H50V600Zm0 200h300v100H50V800Z"/><glyph glyph-name="imacron" unicode="ī" horiz-adv-x="200" d="M50 0h100v500H50V0ZM-50 600h300v100H-50V600Z"/><glyph glyph-name="Ibreve" unicode="Ĭ" horiz-adv-x="400" d="M50 600h100V100H50V0h300v100H250v500h100v100H50V600Zm50 100h200v100H100v100H0V800h100V700Zm200 100h100v100H300V800Z"/><glyph glyph-name="ibreve" unicode="ĭ" horiz-adv-x="200" d="M50 0h100v500H50V0ZM0 500h200v100H0v100h-100V600H0V500Zm200 100h100v100H200V600Z"/><glyph glyph-name="Iogonek" unicode="Į" horiz-adv-x="400" d="M50 600h100V100H50V0h300v100H250v500h100v100H50V600ZM250 0H150v-100h100V0Z"/><glyph glyph-name="iogonek" unicode="į" horiz-adv-x="200" d="M50 600h100v100H50V600ZM50 0h100v500H50V0Zm100 0H50v-100h100V0Z"/><glyph glyph-name="Idotaccent" unicode="İ" horiz-adv-x="400" d="M50 600h100V100H50V0h300v100H250v500h100v100H50V600Zm100 200h100v100H150V800Z"/><glyph glyph-name="dotlessi" unicode="ı" horiz-adv-x="200" d="M50 0h100v500H50V0Z"/><glyph glyph-name="IJ" unicode="Ĳ" horiz-adv-x="900" d="M50 600h100V100H50V0h300v100H250v500h100v100H50V600Zm700-500h100v600H750V100ZM450 0h300v100H450v100H350V100h100V0Z"/><glyph glyph-name="ij" unicode="ĳ" horiz-adv-x="500" d="M50 600h100v100H50V600ZM50 0h100v500H50V0Zm300 600h100v100H350V600Zm0-700h100v600H350v-600ZM50-200h300v100H50v-100Z"/><glyph glyph-name="Jcircumflex" unicode="Ĵ" horiz-adv-x="600" d="M450 100h100v600H450V100ZM150 0h300v100H150v100H50V100h100V0Zm300 800H350v100H250V800h100V700h100v100Zm-200 0H150V700h100v100Z"/><glyph glyph-name="jcircumflex" unicode="ĵ" horiz-adv-x="600" d="M450 0h100v500H450V0ZM150-100h300V0H150v200H50V0h100v-100Zm300 700H350v100H250V600h100V500h100v100Zm-200 0H150V500h100v100Z"/><glyph glyph-name="Kcommaaccent" unicode="Ķ" horiz-adv-x="600" d="M450 0h100v300H450v100H350v100H150v200H50V0h100v400h200V300h100V0Zm0 600h100v100H450V600ZM350 500h100v100H350V500ZM250-100h100V0H250v-100Z"/><glyph glyph-name="kcommaaccent" unicode="ķ" horiz-adv-x="500" d="M250 100h100V0h100v100H350v100H250v100H150v400H50V0h100v200h100V100Zm0 200h100v100H250V300Zm100 100h100v100H350V400ZM200-100h100V0H200v-100Z"/><glyph glyph-name="kgreenlandic" unicode="ĸ" horiz-adv-x="500" d="M250 100h100V0h100v100H350v100H250v100H150v200H50V0h100v200h100V100Zm0 200h100v100H250V300Zm100 100h100v100H350V400Z"/><glyph glyph-name="Lacute" unicode="Ĺ" horiz-adv-x="600" d="M50 0h500v100H150v600H50V0Zm350 900H300V800h100v100ZM300 800H200V700h100v100Z"/><glyph glyph-name="lacute" unicode="ĺ" horiz-adv-x="300" d="M150 0h100v100H150v600H50V100h100V0Zm100 900H150V800h100v100ZM150 800H50V700h100v100Z"/><glyph glyph-name="Lcommaaccent" unicode="Ļ" horiz-adv-x="600" d="M50 0h500v100H150v600H50V0Zm200-100h100V0H250v-100Z"/><glyph glyph-name="lcommaaccent" unicode="ļ" horiz-adv-x="300" d="M150 0h100v100H150v600H50V100h100V0ZM50-100h100V0H50v-100Z"/><glyph glyph-name="Lcaron" unicode="Ľ" horiz-adv-x="600" d="M350 500h100v200H350V500ZM50 0h500v100H150v600H50V0Z"/><glyph glyph-name="lcaron" unicode="ľ" horiz-adv-x="400" d="M250 550h100v200H250V550ZM150 0h100v100H150v600H50V100h100V0Z"/><glyph glyph-name="Ldot" unicode="Ŀ" horiz-adv-x="600" d="M50 0h500v100H150v600H50V0Zm300 325h100v100H350V325Z"/><glyph glyph-name="ldot" unicode="ŀ" horiz-adv-x="400" d="M150 0h100v100H150v600H50V100h100V0Zm100 300h100v100H250V300Z"/><glyph glyph-name="Lslash" unicode="Ł" horiz-adv-x="600" d="M150 300H50V200h100V0h400v100H250v200h100v100H250v300H150V300Zm300 200H350V400h100v100Z"/><glyph glyph-name="lslash" unicode="ł" horiz-adv-x="400" d="M250 100V0h100v100H250Zm0 0v200h100v100H250v300H150V300H50V200h100V100h100Z"/><glyph glyph-name="Nacute" unicode="Ń" horiz-adv-x="600" d="M250 400h100V300h100V0h100v700H450V400H350v100H250v100H150v100H50V0h100v500h100V400Zm200 500H350V800h100v100ZM350 800H250V700h100v100Z"/><glyph glyph-name="nacute" unicode="ń" horiz-adv-x="600" d="M450 0h100v400H450v100H50V0h100v400h300V0Zm-50 700H300V600h100v100ZM300 600H200V500h100v100Z"/><glyph glyph-name="Ncommaaccent" unicode="Ņ" horiz-adv-x="600" d="M250 400h100V300h100V0h100v700H450V400H350v100H250v100H150v100H50V0h100v500h100V400Zm0-500h100V0H250v-100Z"/><glyph glyph-name="ncommaaccent" unicode="ņ" horiz-adv-x="600" d="M450 0h100v400H450v100H50V0h100v400h300V0ZM250-100h100V0H250v-100Z"/><glyph glyph-name="Ncaron" unicode="Ň" horiz-adv-x="600" d="M250 400h100V300h100V0h100v700H450V400H350v100H250v100H150v100H50V0h100v500h100V400Zm0 500H150V800h100V700h100v100H250v100Zm200 0H350V800h100v100Z"/><glyph glyph-name="ncaron" unicode="ň" horiz-adv-x="600" d="M450 0h100v400H450v100H50V0h100v400h300V0ZM250 700H150V600h100V500h100v100H250v100Zm200 0H350V600h100v100Z"/><glyph glyph-name="Eng" unicode="Ŋ" horiz-adv-x="600" d="M450 400H350v100H250v100H150v100H50V0h100v500h100V400h100V300h100V0h100v700H450V400ZM250-100h200V0H250v-100Z"/><glyph glyph-name="eng" unicode="ŋ" horiz-adv-x="600" d="M450 0h100v400H450v100H50V0h100v400h300V0ZM250-100h200V0H250v-100Z"/><glyph glyph-name="Omacron" unicode="Ō" horiz-adv-x="600" d="M50 100h100V0h300v100H150v500H50V100Zm400 0h100v500H450v100H150V600h300V100ZM150 800h300v100H150V800Z"/><glyph glyph-name="omacron" unicode="ō" horiz-adv-x="600" d="M450 100h100v300H450v100H150V400h300V100ZM150 0h300v100H150v300H50V100h100V0Zm0 600h300v100H150V600Z"/><glyph glyph-name="Obreve" unicode="Ŏ" horiz-adv-x="600" d="M450 100h100v500H450v100h-50v100H200v100H100V800h100V700h-50V600h300V100Zm-400 0h100V0h300v100H150v500H50V100Zm350 700h100v100H400V800Z"/><glyph glyph-name="obreve" unicode="ŏ" horiz-adv-x="600" d="M450 100h100v300H450v100H150V400h300V100ZM150 0h300v100H150v300H50V100h100V0Zm50 500h200v100H200v100H100V600h100V500Zm200 100h100v100H400V600Z"/><glyph glyph-name="Ohungarumlaut" unicode="Ő" horiz-adv-x="600" d="M450 100h100v500H450v100H150V600h300V100ZM150 0h300v100H150v500H50V100h100V0Zm150 900H200V800h100v100ZM200 800H100V700h100v100Zm400 100H500V800h100v100ZM500 800H400V700h100v100Z"/><glyph glyph-name="ohungarumlaut" unicode="ő" horiz-adv-x="600" d="M450 100h100v300H450v100H150V400h300V100ZM150 0h300v100H150v300H50V100h100V0Zm150 700H200V600h100v100ZM200 600H100V500h100v100Zm400 100H500V600h100v100ZM500 600H400V500h100v100Z"/><glyph glyph-name="OE" unicode="Œ" horiz-adv-x="800" d="M50 100h100V0h600v100H450v300h200v100H450v100h300v100H150V600h200V100H150v500H50V100Z"/><glyph glyph-name="oe" unicode="œ" horiz-adv-x="800" d="M350 400V100h100V0h300v100H450v100h300v200H650v100H450V400h200V300H450v100H350v100H150V400h200ZM150 100V0h200v100H150v300H50V100h100Z"/><glyph glyph-name="Racute" unicode="Ŕ" horiz-adv-x="600" d="M450 0h100v400H450v100H150v100h300V500h100v100H450v100H300v100H200V700H50V0h100v400h300V0Zm-50 900H300V800h100v100Z"/><glyph glyph-name="racute" unicode="ŕ" horiz-adv-x="600" d="M50 0h100v300h100v100H150v100H50V0Zm400 300h100v100H450v100h-50v100H300V500h-50V400h200V300Zm50 400H400V600h100v100Z"/><glyph glyph-name="Rcommaaccent" unicode="Ŗ" horiz-adv-x="600" d="M450 0h100v400H450v100H150v100h300V500h100v100H450v100H50V0h100v400h300V0ZM250-100h100V0H250v-100Z"/><glyph glyph-name="rcommaaccent" unicode="ŗ" horiz-adv-x="600" d="M50 0h100v300h100v100H150v100H50V0Zm400 300h100v100H450v100H250V400h200V300ZM250-100h100V0H250v-100Z"/><glyph glyph-name="Rcaron" unicode="Ř" horiz-adv-x="600" d="M450 0h100v400H450v100H150v100h300V500h100v100H450v100H50V0h100v400h300V0ZM250 900H150V800h100V700h100v100H250v100Zm200 0H350V800h100v100Z"/><glyph glyph-name="rcaron" unicode="ř" horiz-adv-x="600" d="M50 0h100v300h100v100H150v100H50V0Zm400 300h100v100H450v100H250V400h200V300ZM250 700H150V600h100V500h100v100H250v100Zm200 0H350V600h100v100Z"/><glyph glyph-name="Sacute" unicode="Ś" horiz-adv-x="600" d="M150 400h300V100h100v300H450v100H150v100H50V500h100V400Zm0-400h300v100H150v100H50V100h100V0Zm0 600h400v100H150V600Zm350 300H400V800h100v100ZM400 800H300V700h100v100Z"/><glyph glyph-name="sacute" unicode="ś" horiz-adv-x="600" d="M150 200h300V100h100v100H450v100H150v100H50V300h100V200ZM50 0h400v100H50V0Zm100 400h400v100H150V400Zm350 300H400V600h100v100ZM400 600H300V500h100v100Z"/><glyph glyph-name="Scircumflex" unicode="Ŝ" horiz-adv-x="600" d="M150 400h300V100h100v300H450v100H150v100H50V500h100V400Zm0-400h300v100H150v100H50V100h100V0Zm0 600h400v100H150V600Zm300 200H350v100H250V800h100V700h100v100Zm-200 0H150V700h100v100Z"/><glyph glyph-name="scircumflex" unicode="ŝ" horiz-adv-x="600" d="M150 200h300V100h100v100H450v100H150v100H50V300h100V200ZM50 0h400v100H50V0Zm100 400h400v100H150V400Zm300 200H350v100H250V600h100V500h100v100Zm-200 0H150V500h100v100Z"/><glyph glyph-name="Scedilla" unicode="Ş" horiz-adv-x="600" d="M150 400h300V100h100v300H450v100H150v100H50V500h100V400Zm0-400h100v-100h100V0h100v100H150v100H50V100h100V0Zm0 600h400v100H150V600Z"/><glyph glyph-name="scedilla" unicode="ş" horiz-adv-x="600" d="M50 0h200v-100h100V0h100v100H50V0Zm100 200h300V100h100v100H450v100H150v100H50V300h100V200Zm0 200h400v100H150V400Z"/><glyph glyph-name="Scaron" unicode="Š" horiz-adv-x="600" d="M150 400h300V100h100v300H450v100H150v100H50V500h100V400Zm0-400h300v100H150v100H50V100h100V0Zm0 600h400v100H150V600Zm150 300H200V800h100V700h100v100H300v100Zm200 0H400V800h100v100Z"/><glyph glyph-name="scaron" unicode="š" horiz-adv-x="600" d="M150 200h300V100h100v100H450v100H150v100H50V300h100V200ZM50 0h400v100H50V0Zm100 400h400v100H150V400Zm150 300H200V600h100V500h100v100H300v100Zm200 0H400V600h100v100Z"/><glyph glyph-name="Tcommaaccent" unicode="Ţ" horiz-adv-x="600" d="M50 600h200V0h100v600h200v100H50V600Zm200-700h100V0H250v-100Z"/><glyph glyph-name="tcommaaccent" unicode="ţ" horiz-adv-x="400" d="M250 0h100v100H250v300h100v100H250v200H150V500H50V400h100V100h100V0ZM150-100h100V0H150v-100Z"/><glyph glyph-name="Tcaron" unicode="Ť" horiz-adv-x="600" d="M50 600h200V0h100v600h200v100H50V600Zm200 300H150V800h100V700h100v100H250v100Zm200 0H350V800h100v100Z"/><glyph glyph-name="tcaron" unicode="ť" horiz-adv-x="500" d="M250 0h100v100H250v300h100v100H250v200H150V500H50V400h100V100h100V0Zm100 550h100v200H350V550Z"/><glyph glyph-name="Tbar" unicode="Ŧ" horiz-adv-x="600" d="M150 300h100V0h100v300h100v100H350v200h200v100H50V600h200V400H150V300Z"/><glyph glyph-name="tbar" unicode="ŧ" horiz-adv-x="400" d="M50 200h100V100h100V0h100v100H250v100h100v100H250v100h100v100H250v200H150V500H50V400h100V300H50V200Z"/><glyph glyph-name="Utilde" unicode="Ũ" horiz-adv-x="600" d="M150 0h300v100H150v600H50V100h100V0Zm300 100h100v600H450V100Zm-50 700H300v100H200V800h100V700h100v100Zm100 100H400V800h100v100ZM200 800H100V700h100v100Z"/><glyph glyph-name="utilde" unicode="ũ" horiz-adv-x="600" d="M450 100H150v400H50V100h100V0h400v500H450V100Zm-50 500H300v100H200V600h100V500h100v100Zm100 100H400V600h100v100ZM200 600H100V500h100v100Z"/><glyph glyph-name="Umacron" unicode="Ū" horiz-adv-x="600" d="M150 0h300v100H150v600H50V100h100V0Zm300 100h100v600H450V100ZM150 800h300v100H150V800Z"/><glyph glyph-name="umacron" unicode="ū" horiz-adv-x="600" d="M450 100H150v400H50V100h100V0h400v500H450V100ZM150 600h300v100H150V600Z"/><glyph glyph-name="Ubreve" unicode="Ŭ" horiz-adv-x="600" d="M150 0h300v100H150v600H50V100h100V0Zm300 100h100v600H450V100ZM200 700h200v100H200v100H100V800h100V700Zm200 100h100v100H400V800Z"/><glyph glyph-name="ubreve" unicode="ŭ" horiz-adv-x="600" d="M450 100H150v400H50V100h100V0h400v500H450V100ZM200 500h200v100H200v100H100V600h100V500Zm200 100h100v100H400V600Z"/><glyph glyph-name="Uring" unicode="Ů" horiz-adv-x="600" d="M150 0h300v100H150v600H50V100h100V0Zm300 100h100v600H450V100Zm-50 650h100v100H400v100H200V850h200V750ZM200 650h200v100H200v100H100V750h100V650Z"/><glyph glyph-name="uring" unicode="ů" horiz-adv-x="600" d="M450 100H150v400H50V100h100V0h400v500H450V100Zm-50 450h100v100H400v100H200V650h200V550ZM200 450h200v100H200v100H100V550h100V450Z"/><glyph glyph-name="Uhungarumlaut" unicode="Ű" horiz-adv-x="600" d="M150 0h300v100H150v600H50V100h100V0Zm300 100h100v600H450V100ZM300 900H200V800h100v100ZM200 800H100V700h100v100Zm400 100H500V800h100v100ZM500 800H400V700h100v100Z"/><glyph glyph-name="uhungarumlaut" unicode="ű" horiz-adv-x="600" d="M450 100H150v400H50V100h100V0h400v500H450V100ZM300 700H200V600h100v100ZM200 600H100V500h100v100Zm400 100H500V600h100v100ZM500 600H400V500h100v100Z"/><glyph glyph-name="Uogonek" unicode="Ų" horiz-adv-x="600" d="M150 0h300v100H150v600H50V100h100V0Zm300 100h100v600H450V100ZM400 0H300v-100h100V0Z"/><glyph glyph-name="uogonek" unicode="ų" horiz-adv-x="600" d="M450 100H150v400H50V100h100V0h400v500H450V100ZM425 0H325v-100h100V0Z"/><glyph glyph-name="Wcircumflex" unicode="Ŵ" horiz-adv-x="600" d="M250 200h100V100h100V0h100v700H450V200H350v100H250V200ZM50 0h100v100h100v100H150v500H50V0Zm400 800H350v100H250V800h100V700h100v100Zm-200 0H150V700h100v100Z"/><glyph glyph-name="wcircumflex" unicode="ŵ" horiz-adv-x="600" d="M450 100H350v200H250V100H150v400H50V100h100V0h400v500H450V100Zm0 500H350v100H250V600h100V500h100v100Zm-200 0H150V500h100v100Z"/><glyph glyph-name="Ycircumflex" unicode="Ŷ" horiz-adv-x="600" d="M150 500h100V0h100v500H250v100H150v100H50V600h100V500Zm200 0h100v100H350V500Zm100 100h100v100H450V600Zm0 200H350v100H250V800h100V700h100v100Zm-200 0H150V700h100v100Z"/><glyph glyph-name="ycircumflex" unicode="ŷ" horiz-adv-x="600" d="M450 200H150v300H50V200h100V100h300V0h100v500H450V200Zm0-300V0H50v-100h400Zm0 700H350v100H250V600h100V500h100v100Zm-200 0H150V500h100v100Z"/><glyph glyph-name="Ydieresis" unicode="Ÿ" horiz-adv-x="600" d="M150 500h100V0h100v500H250v100H150v100H50V600h100V500Zm100 400H150V800h100v100Zm200 0H350V800h100v100ZM350 500h100v100H350V500Zm100 100h100v100H450V600Z"/><glyph glyph-name="Zacute" unicode="Ź" horiz-adv-x="600" d="M300 800H200V700H50V600h400V500h100v200H300v100ZM50 0h500v100H150v100H50V0Zm300 400h100v100H350V400ZM150 200h100v100H150V200Zm100 100h100v100H250V300Zm150 600H300V800h100v100Z"/><glyph glyph-name="zacute" unicode="ź" horiz-adv-x="600" d="M300 600H200V500H50V400h300V300h100v100h100v100H300v100ZM150 100H50V0h500v100H250v100H150V100Zm250 600H300V600h100v100ZM250 200h100v100H250V200Z"/><glyph glyph-name="Zdotaccent" unicode="Ż" horiz-adv-x="600" d="M50 600h400V500h100v200H50V600Zm300-200h100v100H350V400ZM250 300h100v100H250V300ZM150 200h100v100H150V200ZM50 0h500v100H150v100H50V0Zm200 800h100v100H250V800Z"/><glyph glyph-name="zdotaccent" unicode="ż" horiz-adv-x="600" d="M50 400h300V300h100v100h100v100H50V400Zm200-200h100v100H250V200ZM150 100H50V0h500v100H250v100H150V100Zm100 500h100v100H250V600Z"/><glyph glyph-name="Zcaron" unicode="Ž" horiz-adv-x="600" d="M50 600h400V500h100v200H50V600Zm300-200h100v100H350V400ZM250 300h100v100H250V300ZM150 200h100v100H150V200ZM50 0h500v100H150v100H50V0Zm200 900H150V800h100V700h100v100H250v100Zm200 0H350V800h100v100Z"/><glyph glyph-name="zcaron" unicode="ž" horiz-adv-x="600" d="M50 400h300V300h100v100h100v100H50V400Zm200-200h100v100H250V200ZM150 100H50V0h500v100H250v100H150V100Zm100 600H150V600h100V500h100v100H250v100Zm200 0H350V600h100v100Z"/><glyph glyph-name="florin" unicode="ƒ" horiz-adv-x="600" d="M250 400H150V300h100V0h100v300h100v100H350v200H250V400ZM150-100h100V0H150v100H50V0h100v-100Zm300 600h100v100H450v100H350V600h100V500Z"/><glyph glyph-name="AEacute" unicode="Ǽ" horiz-adv-x="800" d="M450 800H350V700H150V600h200V500H150v100H50V0h100v400h200V0h400v100H450v300h200v100H450v100h300v100H450v100Zm100 100H450V800h100v100Z"/><glyph glyph-name="aeacute" unicode="ǽ" horiz-adv-x="800" d="M150 300V200h200V100h100V0h300v100H450v100h300v200H650v100H450V400h200V300H450v100H350V300H150Zm0-200V0h200v100H150v100H50V100h100Zm200 300v100H150V400h200Zm200 300H450V600h100v100ZM450 600H350V500h100v100Z"/><glyph glyph-name="Oslashacute" unicode="Ǿ" horiz-adv-x="600" d="M150 600h200V400h100V100h100v500H450v100H350v100H250V700H150V600Zm0 0H50V100h100V0h300v100H250v200H150v300Zm100-300h100v100H250V300Zm200 600H350V800h100v100Z"/><glyph glyph-name="oslashacute" unicode="ǿ" horiz-adv-x="600" d="M150 400h200V300h100V100h100v300H450v100H350v100H250V500H150V400ZM50 100h100V0h300v100H250v100H150v200H50V100Zm400 600H350V600h100v100ZM250 200h100v100H250V200Z"/><glyph glyph-name="Scommaaccent" unicode="Ș" horiz-adv-x="600" d="M150 400h300V100h100v300H450v100H150v100H50V500h100V400Zm0-400h100v-100h100V0h100v100H150v100H50V100h100V0Zm0 600h400v100H150V600Z"/><glyph glyph-name="scommaaccent" unicode="ș" horiz-adv-x="600" d="M50 0h200v-100h100V0h100v100H50V0Zm100 200h300V100h100v100H450v100H150v100H50V300h100V200Zm0 200h400v100H150V400Z"/><glyph glyph-name="uni021A" unicode="Ț" horiz-adv-x="600" d="M50 600h200V0h100v600h200v100H50V600Zm200-700h100V0H250v-100Z"/><glyph glyph-name="uni021B" unicode="ț" horiz-adv-x="400" d="M250 0h100v100H250v300h100v100H250v200H150V500H50V400h100V100h100V0ZM150-100h100V0H150v-100Z"/><glyph glyph-name="dotlessj" unicode="ȷ" horiz-adv-x="600" d="M450 0h100v500H450V0ZM150-100h300V0H150v200H50V0h100v-100Z"/><glyph glyph-name="circumflex" unicode="ˆ" horiz-adv-x="400" d="M350 600H250v100H150V600h100V500h100v100Zm-200 0H50V500h100v100Z"/><glyph glyph-name="caron" unicode="ˇ" horiz-adv-x="400" d="M150 700H50V600h100V500h100v100H150v100Zm200 0H250V600h100v100Z"/><glyph glyph-name="uni02C9" unicode="ˉ" horiz-adv-x="400" d="M50 600h300v100H50V600Z"/><glyph glyph-name="breve" unicode="˘" horiz-adv-x="500" d="M150 500h200v100H150v100H50V600h100V500Zm200 100h100v100H350V600Z"/><glyph glyph-name="dotaccent" unicode="˙" horiz-adv-x="200" d="M50 600h100v100H50V600Z"/><glyph glyph-name="ring" unicode="˚" horiz-adv-x="500" d="M350 500h100v100H350v100H150V600h200V500ZM150 400h200v100H150v100H50V500h100V400Z"/><glyph glyph-name="ogonek" unicode="˛" horiz-adv-x="300" d="M200 0H100v-100h100V0Z"/><glyph glyph-name="tilde" unicode="˜" horiz-adv-x="500" d="M350 600H250v100H150V600h100V500h100v100Zm100 100H350V600h100v100ZM150 600H50V500h100v100Z"/><glyph glyph-name="hungarumlaut" unicode="˝" horiz-adv-x="600" d="M250 700H150V600h100v100ZM150 600H50V500h100v100Zm400 100H450V600h100v100ZM450 600H350V500h100v100Z"/><glyph glyph-name="tonos" unicode="΄" horiz-adv-x="300" d="M250 700H150V600h100v100ZM150 600H50V500h100v100Z"/><glyph glyph-name="dieresistonos" unicode="΅" horiz-adv-x="500" d="M300 750H200V550h100v200Zm150-50H350V600h100v100Zm-300 0H50V600h100v100Z"/><glyph glyph-name="Alphatonos" unicode="Ά" horiz-adv-x="800" d="M250 0h100v400h300V0h100v600H650v100H350V600H250V0Zm100 600h300V500H350v100ZM250 700H150V600h100v100ZM150 600H50V500h100v100Z"/><glyph glyph-name="Epsilontonos" unicode="Έ" horiz-adv-x="800" d="M250 0h500v100H350v300h200v100H350v100h400v100H250V0Zm0 700H150V600h100v100ZM150 600H50V500h100v100Z"/><glyph glyph-name="Etatonos" unicode="Ή" horiz-adv-x="800" d="M250 0h100v400h300V0h100v700H650V500H350v200H250V0Zm0 700H150V600h100v100ZM150 600H50V500h100v100Z"/><glyph glyph-name="Iotatonos" unicode="Ί" horiz-adv-x="600" d="M250 600h100V100H250V0h300v100H450v500h100v100H250V600Zm0 100H150V600h100v100ZM150 600H50V500h100v100Z"/><glyph glyph-name="Omicrontonos" unicode="Ό" horiz-adv-x="800" d="M650 100h100v500H650v100H350V600h300V100ZM350 0h300v100H350v500H250V100h100V0ZM250 700H150V600h100v100ZM150 600H50V500h100v100Z"/><glyph glyph-name="Upsilontonos" unicode="Ύ" horiz-adv-x="800" d="M350 500h100V0h100v500H450v100H350v100H250V600h100V500Zm200 0h100v100H550V500Zm100 100h100v100H650V600ZM250 700H150V600h100v100ZM150 600H50V500h100v100Z"/><glyph glyph-name="Omegatonos" unicode="Ώ" horiz-adv-x="800" d="M650 200h100v400H650v100H350V600h300V200ZM250 0h200v200H350v400H250V200h100V100H250V0Zm500 0v100H650v100H550V0h200ZM250 700H150V600h100v100ZM150 600H50V500h100v100Z"/><glyph glyph-name="iotadieresistonos" unicode="ΐ" horiz-adv-x="300" d="M150 0h100v100H150v400H50V100h100V0Zm0 750H50V550h100v200Zm150-50H200V600h100v100ZM0 700h-100V600H0v100Z"/><glyph glyph-name="Alpha" unicode="Α" horiz-adv-x="600" d="M50 0h100v400h300V0h100v600H450v100H150V600H50V0Zm100 600h300V500H150v100Z"/><glyph glyph-name="Beta" unicode="Β" horiz-adv-x="600" d="M450 100h100v300H450v100H150v100h300V500h100v100H450v100H50V0h400v100H150v300h300V100Z"/><glyph glyph-name="Gamma" unicode="Γ" horiz-adv-x="600" d="M150 600h400v100H50V0h100v600Z"/><glyph glyph-name="uni0394" unicode="Δ" horiz-adv-x="600" d="M50 0h500v400H450v200H350v100H250V600h100V400h100V100H150v300H50V0Zm100 400h100v200H150V400Z"/><glyph glyph-name="Epsilon" unicode="Ε" horiz-adv-x="600" d="M50 0h500v100H150v300h200v100H150v100h400v100H50V0Z"/><glyph glyph-name="Zeta" unicode="Ζ" horiz-adv-x="600" d="M50 600h400V500h100v200H50V600Zm300-200h100v100H350V400ZM250 300h100v100H250V300ZM150 200h100v100H150V200ZM50 0h500v100H150v100H50V0Z"/><glyph glyph-name="Eta" unicode="Η" horiz-adv-x="600" d="M50 0h100v400h300V0h100v700H450V500H150v200H50V0Z"/><glyph glyph-name="Theta" unicode="Θ" horiz-adv-x="600" d="M450 100h100v500H450v100H150V600h300V100ZM150 0h300v100H150v500H50V100h100V0Zm200 300v100H250V300h100Z"/><glyph glyph-name="Iota" unicode="Ι" horiz-adv-x="400" d="M50 600h100V100H50V0h300v100H250v500h100v100H50V600Z"/><glyph glyph-name="Kappa" unicode="Κ" horiz-adv-x="600" d="M450 0h100v300H450v100H350v100H150v200H50V0h100v400h200V300h100V0Zm0 600h100v100H450V600ZM350 500h100v100H350V500Z"/><glyph glyph-name="Lambda" unicode="Λ" horiz-adv-x="600" d="M350 400h100V0h100v400H450v200H350v100H250V600h100V400ZM50 0h100v400H50V0Zm100 400h100v200H150V400Z"/><glyph glyph-name="Mu" unicode="Μ" horiz-adv-x="600" d="M250 400h100v100H250v100H150v100H50V0h100v500h100V400Zm200 200H350V500h100V0h100v700H450V600Z"/><glyph glyph-name="Nu" unicode="Ν" horiz-adv-x="600" d="M250 400h100V300h100V0h100v700H450V400H350v100H250v100H150v100H50V0h100v500h100V400Z"/><glyph glyph-name="Xi" unicode="Ξ" horiz-adv-x="600" d="M50 0h500v100H50V0Zm500 600v100H50V600h500ZM450 300v100H150V300h300Z"/><glyph glyph-name="Omicron" unicode="Ο" horiz-adv-x="600" d="M450 100h100v500H450v100H150V600h300V100ZM150 0h300v100H150v500H50V100h100V0Z"/><glyph glyph-name="Pi" unicode="Π" horiz-adv-x="600" d="M50 0h100v600h300V0h100v700H50V0Z"/><glyph glyph-name="Rho" unicode="Ρ" horiz-adv-x="600" d="M450 500h100v100H450v100H50V0h100v400h300v100H150v100h300V500Z"/><glyph glyph-name="Sigma" unicode="Σ" horiz-adv-x="600" d="M250 300h100v100H250v100H150v100h400v100H50V500h100V400h100V300ZM50 0h500v100H150v100H50V0Zm100 200h100v100H150V200Z"/><glyph glyph-name="Tau" unicode="Τ" horiz-adv-x="600" d="M50 600h200V0h100v600h200v100H50V600Z"/><glyph glyph-name="Upsilon" unicode="Υ" horiz-adv-x="600" d="M150 500h100V0h100v500H250v100H150v100H50V600h100V500Zm200 0h100v100H350V500Zm100 100h100v100H450V600Z"/><glyph glyph-name="Phi" unicode="Φ" horiz-adv-x="600" d="M450 200h100v300H450v100H350v100H250V600H150V500h100V200H150v300H50V200h100V100h100V0h100v100h100v100Zm0 0H350v300h100V200Z"/><glyph glyph-name="Chi" unicode="Χ" horiz-adv-x="600" d="M150 500h100V400h100V300h100V0h100v300H450v100H350v100H250v100H150v100H50V600h100V500ZM50 0h100v300H50V0Zm100 300h100v100H150V300Zm200 200h100v100H350V500Zm100 100h100v100H450V600Z"/><glyph glyph-name="Psi" unicode="Ψ" horiz-adv-x="600" d="M150 400V300h100V0h100v300h100v100H350v300H250V400H150Zm300 0h100v300H450V400Zm-300 0v300H50V400h100Z"/><glyph glyph-name="uni03A9" unicode="Ω" horiz-adv-x="600" d="M450 200h100v400H450v100H150V600h300V200ZM50 0h200v200H150v400H50V200h100V100H50V0Zm500 0v100H450v100H350V0h200Z"/><glyph glyph-name="Iotadieresis" unicode="Ϊ" horiz-adv-x="400" d="M50 600h100V100H50V0h300v100H250v500h100v100H50V600Zm300 300H250V800h100v100Zm-200 0H50V800h100v100Z"/><glyph glyph-name="Upsilondieresis" unicode="Ϋ" horiz-adv-x="600" d="M150 500h100V0h100v500H250v100H150v100H50V600h100V500Zm100 400H150V800h100v100Zm200 0H350V800h100v100ZM350 500h100v100H350V500Zm100 100h100v100H450V600Z"/><glyph glyph-name="alphatonos" unicode="ά" horiz-adv-x="600" d="M450 100v300H350v100H150V400h200V100h100ZM150 400H50V100h100V0h200v100H150v300Zm300 0h100v100H450V400Zm0-300V0h100v100H450Zm-50 600H300V600h100v100ZM300 600H200V500h100v100Z"/><glyph glyph-name="epsilontonos" unicode="έ" horiz-adv-x="600" d="M50 100h100V0h400v100H150v100H50V100Zm100 100h300v100H150v100H50V300h100V200Zm0 200h400v100H150V400Zm350 300H400V600h100v100ZM400 600H300V500h100v100Z"/><glyph glyph-name="etatonos" unicode="ή" horiz-adv-x="600" d="M450-100h100v500H450v100H50V0h100v400h300v-500Zm-50 800H300V600h100v100ZM300 600H200V500h100v100Z"/><glyph glyph-name="iotatonos" unicode="ί" horiz-adv-x="300" d="M150 0h100v100H150v400H50V100h100V0Zm50 700H100V600h100v100ZM100 600H0V500h100v100Z"/><glyph glyph-name="upsilondieresistonos" unicode="ΰ" horiz-adv-x="600" d="M450 0v100H150v400H50V100h100V0h300Zm0 500H350V400h100V100h100v300H450v100ZM300 750H200V550h100v200Zm150-50H350V600h100v100Zm-300 0H50V600h100v100Z"/><glyph glyph-name="alpha" unicode="α" horiz-adv-x="600" d="M450 100v300H350v100H150V400h200V100h100ZM150 400H50V100h100V0h200v100H150v300Zm300 0h100v100H450V400Zm0-300V0h100v100H450Z"/><glyph glyph-name="beta" unicode="β" horiz-adv-x="500" d="M150 300h200V100h100v200H350v100H150v200H50v-700h100V0h200v100H150v200Zm0 300h200V400h100v200H350v100H150V600Z"/><glyph glyph-name="gamma" unicode="γ" horiz-adv-x="600" d="M250 100v100H150v300H50V200h100V100h100Zm200 100h100v300H450V200ZM250 100v-200h100v200H250Zm200 0v100H350V100h100Z"/><glyph glyph-name="delta" unicode="δ" horiz-adv-x="600" d="M250 700V600h200v100H250Zm200-600h100v200H450v100H350v100H250v100H150V500h100V400h100V300h100V100ZM150 300H50V100h100V0h300v100H150v200Zm100 100H150V300h100v100Z"/><glyph glyph-name="epsilon" unicode="ε" horiz-adv-x="600" d="M50 100h100V0h400v100H150v100H50V100Zm100 100h300v100H150v100H50V300h100V200Zm0 200h400v100H150V400Z"/><glyph glyph-name="zeta" unicode="ζ" horiz-adv-x="600" d="M450 100v100H150v100H50V200h100V100h300ZM150 700V600h200V500h100v100H350v100H150Zm200-300v100H250V400h100ZM150 300h100v100H150V300Zm300-400V0H350v-100h100Zm0 200V0h100v100H450Z"/><glyph glyph-name="eta" unicode="η" horiz-adv-x="600" d="M450-100h100v500H450v100H50V0h100v400h300v-500Z"/><glyph glyph-name="theta" unicode="θ" horiz-adv-x="600" d="M150 600h300V400H150v200H50V100h100V0h300v100H150v200h300V100h100v500H450v100H150V600Z"/><glyph glyph-name="iota" unicode="ι" horiz-adv-x="300" d="M150 0h100v100H150v400H50V100h100V0Z"/><glyph glyph-name="kappa" unicode="κ" horiz-adv-x="500" d="M250 100h100V0h100v100H350v100H250v100H150v200H50V0h100v200h100V100Zm0 200h100v100H250V300Zm100 100h100v100H350V400Z"/><glyph glyph-name="lambda" unicode="λ" horiz-adv-x="600" d="M250 400h100V200h100V0h100v200H450v200H350v100H250v100H50V500h200V400ZM150 200h100v200H150V200ZM50 0h100v200H50V0Z"/><glyph glyph-name="uni03BC" unicode="μ" horiz-adv-x="600" d="M150 100h100V0h200v100H250v100H150v300H50v-600h100v200Zm400 400H450V100h100v400Z"/><glyph glyph-name="nu" unicode="ν" horiz-adv-x="600" d="M150 100h100V0h100v100H250v100H150v300H50V200h100V100Zm300 100h100v300H450V200ZM350 100h100v100H350V100Z"/><glyph glyph-name="xi" unicode="ξ" horiz-adv-x="600" d="M450 100v100H150v100H50V200h100V100h300ZM150 500h300v100H150v100H50V600h100V500ZM50 400h100V300h300v100H150v100H50V400Zm400-500V0H350v-100h100Zm0 200V0h100v100H450Z"/><glyph glyph-name="omicron" unicode="ο" horiz-adv-x="600" d="M450 100h100v300H450v100H150V400h300V100ZM150 0h300v100H150v300H50V100h100V0Z"/><glyph glyph-name="pi" unicode="π" horiz-adv-x="600" d="M450 0h100v500H50V0h100v400h300V0Z"/><glyph glyph-name="rho" unicode="ρ" horiz-adv-x="600" d="M150 400H50v-500h100v200h300v100H150v200Zm0 0h300V200h100v200H450v100H150V400Z"/><glyph glyph-name="sigma1" unicode="ς" horiz-adv-x="600" d="M450 100v100H150v200H50V200h100V100h300Zm0 200h100v100H450v100H150V400h300V300Zm0-400V0H350v-100h100Zm0 200V0h100v100H450Z"/><glyph glyph-name="sigma" unicode="σ" horiz-adv-x="600" d="M150 400h250V100h100v300h100v100H150V400Zm0-400h250v100H150v300H50V100h100V0Z"/><glyph glyph-name="tau" unicode="τ" horiz-adv-x="600" d="M250 100h100V0h100v100H350v300h200v100H50V400h200V100Z"/><glyph glyph-name="upsilon" unicode="υ" horiz-adv-x="600" d="M450 0v100H150v400H50V100h100V0h300Zm0 500H350V400h100V100h100v300H450v100Z"/><glyph glyph-name="phi" unicode="φ" horiz-adv-x="600" d="M450 200h100v200H450v100H350v200H250V500H150V400h100V200H150v200H50V200h100V100h100v-200h100v200h100v100Zm0 0H350v200h100V200Z"/><glyph glyph-name="chi" unicode="χ" horiz-adv-x="600" d="M150 300h100V200h100V100h100V0h100v100H450v100H350v100H250v100H150v100H50V400h100V300ZM50 0h100v100H50V0Zm100 100h100v100H150V100Zm200 200h100v100H350V300Zm100 100h100v100H450V400Z"/><glyph glyph-name="psi" unicode="ψ" horiz-adv-x="600" d="M450 200H350v500H250V200H150v300H50V200h100V100h100v-200h100v200h100v100Zm0 0h100v300H450V200Z"/><glyph glyph-name="omega" unicode="ω" horiz-adv-x="600" d="M450 500H350V400h100V100h100v300H450v100ZM150 100v300H50V100h100Zm200 0v200H250V100h100Zm0 0V0h100v100H350Zm-200 0V0h100v100H150Zm100 400H150V400h100v100Z"/><glyph glyph-name="iotadieresis" unicode="ϊ" horiz-adv-x="300" d="M250 700H150V600h100v100Zm-200 0H-50V600H50v100ZM150 0h100v100H150v400H50V100h100V0Z"/><glyph glyph-name="upsilondieresis" unicode="ϋ" horiz-adv-x="600" d="M450 0v100H150v400H50V100h100V0h300Zm0 500H350V400h100V100h100v300H450v100Zm0 200H350V600h100v100Zm-200 0H150V600h100v100Z"/><glyph glyph-name="omicrontonos" unicode="ό" horiz-adv-x="600" d="M450 100h100v300H450v100H350v100H250V500H150V400h300V100ZM150 0h300v100H150v300H50V100h100V0Zm300 700H350V600h100v100Z"/><glyph glyph-name="upsilontonos" unicode="ύ" horiz-adv-x="600" d="M450 0v100H150v400H50V100h100V0h300Zm0 500H350V400h100V100h100v300H450v100Zm-50 200H300V600h100v100ZM300 600H200V500h100v100Z"/><glyph glyph-name="omegatonos" unicode="ώ" horiz-adv-x="600" d="M450 500H350V400h100V100h100v300H450v100ZM150 100v300H50V100h100Zm200 0v200H250V100h100Zm0 0V0h100v100H350Zm-200 0V0h100v100H150Zm100 400H150V400h100v100Zm200 200H350V600h100v100ZM350 600H250V500h100v100Z"/><glyph glyph-name="uni0400" unicode="Ѐ" horiz-adv-x="600" d="M50 0h500v100H150v300h200v100H150v100h400v100H50V0Zm250 700h100v100H300v100H200V800h100V700Z"/><glyph glyph-name="uni0401" unicode="Ё" horiz-adv-x="600" d="M50 0h500v100H150v300h200v100H150v100h400v100H50V0Zm400 900H350V800h100v100Zm-200 0H150V800h100v100Z"/><glyph glyph-name="uni0402" unicode="Ђ" horiz-adv-x="700" d="M550 400H350v200h200v100H50V600h200V0h100v300h200V100h100v200H550v100ZM450 0h100v100H450V0Z"/><glyph glyph-name="uni0403" unicode="Ѓ" horiz-adv-x="600" d="M350 800H250V700H50V0h100v600h400v100H350v100Zm100 100H350V800h100v100Z"/><glyph glyph-name="uni0404" unicode="Є" horiz-adv-x="600" d="M50 100h100V0h300v100H150v200h200v100H150v200H50V100Zm400 400h100v100H450v100H150V600h300V500Zm0-400h100v100H450V100Z"/><glyph glyph-name="uni0405" unicode="Ѕ" horiz-adv-x="600" d="M150 400h300V100h100v300H450v100H150v100H50V500h100V400Zm0-400h300v100H150v100H50V100h100V0Zm0 600h400v100H150V600Z"/><glyph glyph-name="uni0406" unicode="І" horiz-adv-x="400" d="M50 600h100V100H50V0h300v100H250v500h100v100H50V600Z"/><glyph glyph-name="uni0407" unicode="Ї" horiz-adv-x="400" d="M50 600h100V100H50V0h300v100H250v500h100v100H50V600Zm300 300H250V800h100v100Zm-200 0H50V800h100v100Z"/><glyph glyph-name="uni0408" unicode="Ј" horiz-adv-x="600" d="M450 100h100v600H450V100ZM150 0h300v100H150v100H50V100h100V0Z"/><glyph glyph-name="uni0409" unicode="Љ" horiz-adv-x="900" d="M250 600h200V0h300v100H550v200h200V100h100v200H750v100H550v300H150V100h100v500ZM50 100V0h100v100H50Z"/><glyph glyph-name="uni040A" unicode="Њ" horiz-adv-x="800" d="M650 100h100v200H650v100H450v300H350V400H150v300H50V0h100v300h200V0h300v100Zm0 0H450v200h200V100Z"/><glyph glyph-name="uni040B" unicode="Ћ" horiz-adv-x="700" d="M550 400H350v200h200v100H50V600h200V0h100v300h200V0h100v300H550v100Z"/><glyph glyph-name="uni040C" unicode="Ќ" horiz-adv-x="600" d="M450 0h100v300H450v100H350v100H150v200H50V0h100v400h200V300h100V0Zm0 600h100v100H450V600ZM350 500h100v100H350V500Zm75 400H325V800h100v100ZM325 800H225V700h100v100Z"/><glyph glyph-name="uni040D" unicode="Ѝ" horiz-adv-x="600" d="M350 400H250V300h100v100ZM150 700H50V0h100v200h100v100H150v400Zm400 0H450V500H350V400h100V0h100v700Zm-300 0h100v100H250v100H150V800h100V700Z"/><glyph glyph-name="uni040E" unicode="Ў" horiz-adv-x="600" d="M150 300h100V200h100v100H250v100H150v300H50V400h100V300Zm300 100h100v300H450V400ZM150 100h100v100H150V100Zm200 200h100v100H350V300ZM50 0h100v100H50V0Zm150 700h200v100H200v100H100V800h100V700Zm200 100h100v100H400V800Z"/><glyph glyph-name="uni040F" unicode="Џ" horiz-adv-x="600" d="M250-100h100V0h200v700H450V100H150v600H50V0h200v-100Z"/><glyph glyph-name="uni0410" unicode="А" horiz-adv-x="600" d="M50 0h100v400h300V0h100v600H450v100H150V600H50V0Zm100 600h300V500H150v100Z"/><glyph glyph-name="uni0411" unicode="Б" horiz-adv-x="600" d="M450 100h100v200H450v100H150v200h300v100H50V0h400v100H150v200h300V100Z"/><glyph glyph-name="uni0412" unicode="В" horiz-adv-x="600" d="M450 100h100v300H450v100H150v100h300V500h100v100H450v100H50V0h400v100H150v300h300V100Z"/><glyph glyph-name="uni0413" unicode="Г" horiz-adv-x="600" d="M150 600h400v100H50V0h100v600Z"/><glyph glyph-name="uni0414" unicode="Д" horiz-adv-x="700" d="M100 200V100H50v-200h100V0h400v-100h100v200h-50v600H200V200h100v400h200V100H200v100H100Z"/><glyph glyph-name="uni0415" unicode="Е" horiz-adv-x="600" d="M50 0h500v100H150v300h200v100H150v100h400v100H50V0Z"/><glyph glyph-name="uni0416" unicode="Ж" horiz-adv-x="800" d="M650 0h100v300H650v100H550v100H450v200H350V500H250v100H150v100H50V600h100V500h100V400h100V0h100v400h100V300h100V0ZM150 300H50V0h100v300Zm400 200h100v100H550V500ZM250 400H150V300h100v100Zm400 200h100v100H650V600Z"/><glyph glyph-name="uni0417" unicode="З" horiz-adv-x="600" d="M50 600h400V500h100v100H450v100H50V600Zm400-500h100v300H450v100H150V400h300V100ZM50 0h400v100H50V0Z"/><glyph glyph-name="uni0418" unicode="И" horiz-adv-x="600" d="M350 400H250V300h100v100ZM150 700H50V0h100v200h100v100H150v400Zm400 0H450V500H350V400h100V0h100v700Z"/><glyph glyph-name="uni0419" unicode="Й" horiz-adv-x="600" d="M150 700H50V0h100v300h100v100H150v300Zm400 0H450V600H350V500h100V0h100v700Zm-350 0h200v100H200v100H100V800h100V700Zm200 100h100v100H400V800Zm-50-300H250V400h100v100Z"/><glyph glyph-name="uni041A" unicode="К" horiz-adv-x="600" d="M450 0h100v300H450v100H350v100H150v200H50V0h100v400h200V300h100V0Zm0 600h100v100H450V600ZM350 500h100v100H350V500Z"/><glyph glyph-name="uni041B" unicode="Л" horiz-adv-x="600" d="M250 100v500h200V0h100v700H150V100h100Zm-200 0V0h100v100H50Z"/><glyph glyph-name="uni041C" unicode="М" horiz-adv-x="600" d="M250 400h100v100H250v100H150v100H50V0h100v500h100V400Zm200 200H350V500h100V0h100v700H450V600Z"/><glyph glyph-name="uni041D" unicode="Н" horiz-adv-x="600" d="M50 0h100v400h300V0h100v700H450V500H150v200H50V0Z"/><glyph glyph-name="uni041E" unicode="О" horiz-adv-x="600" d="M450 100h100v500H450v100H150V600h300V100ZM150 0h300v100H150v500H50V100h100V0Z"/><glyph glyph-name="uni041F" unicode="П" horiz-adv-x="600" d="M50 0h100v600h300V0h100v700H50V0Z"/><glyph glyph-name="uni0420" unicode="Р" horiz-adv-x="600" d="M450 500h100v100H450v100H50V0h100v400h300v100H150v100h300V500Z"/><glyph glyph-name="uni0421" unicode="С" horiz-adv-x="600" d="M150 0h300v100H150v500H50V100h100V0Zm300 500h100v100H450v100H150V600h300V500Zm0-400h100v100H450V100Z"/><glyph glyph-name="uni0422" unicode="Т" horiz-adv-x="600" d="M50 600h200V0h100v600h200v100H50V600Z"/><glyph glyph-name="uni0423" unicode="У" horiz-adv-x="600" d="M150 300h100V200h100v100H250v100H150v300H50V400h100V300Zm300 100h100v300H450V400ZM150 100h100v100H150V100Zm200 200h100v100H350V300ZM50 0h100v100H50V0Z"/><glyph glyph-name="uni0424" unicode="Ф" horiz-adv-x="600" d="M450 200h100v300H450v100H350v100H250V600H150V500h100V200H150v300H50V200h100V100h100V0h100v100h100v100Zm0 0H350v300h100V200Z"/><glyph glyph-name="uni0425" unicode="Х" horiz-adv-x="600" d="M150 500h100V400h100V300h100V0h100v300H450v100H350v100H250v100H150v100H50V600h100V500ZM50 0h100v300H50V0Zm100 300h100v100H150V300Zm200 200h100v100H350V500Zm100 100h100v100H450V600Z"/><glyph glyph-name="uni0426" unicode="Ц" horiz-adv-x="600" d="M450-100h100v200h-50v600H400V100H150v600H50V0h400v-100Z"/><glyph glyph-name="uni0427" unicode="Ч" horiz-adv-x="600" d="M150 300h300V0h100v700H450V400H150v300H50V400h100V300Z"/><glyph glyph-name="uni0428" unicode="Ш" horiz-adv-x="600" d="M250 100H150v600H50V0h500v700H450V100H350v600H250V100Z"/><glyph glyph-name="uni0429" unicode="Щ" horiz-adv-x="650" d="M250 100H150v600H50V0h450v-100h100v200h-50v600H450V100H350v600H250V100Z"/><glyph glyph-name="uni042A" unicode="Ъ" horiz-adv-x="700" d="M550 100H350v200h200V100h100v200H550v100H350v300H50V600h200V0h300v100Z"/><glyph glyph-name="uni042B" unicode="Ы" horiz-adv-x="700" d="M350 100h100v200H350v100H150v300H50V0h300v100Zm300 600H550V0h100v700ZM350 100H150v200h200V100Z"/><glyph glyph-name="uni042C" unicode="Ь" horiz-adv-x="600" d="M450 100h100v200H450v100H150v300H50V0h400v100Zm0 0H150v200h300V100Z"/><glyph glyph-name="uni042D" unicode="Э" horiz-adv-x="600" d="M550 600H450v100H150V600h300V400H250V300h200V100h100v500ZM150 200H50V100h100V0h300v100H150v100Zm0 400H50V500h100v100Z"/><glyph glyph-name="uni042E" unicode="Ю" horiz-adv-x="700" d="M250 100h100V0h200v100H350v500H250V400H150v300H50V0h100v300h100V100Zm300 0h100v500H550v100H350V600h200V100Z"/><glyph glyph-name="uni042F" unicode="Я" horiz-adv-x="600" d="M550 700H150V600H50V500h100V400h300V0h100v700ZM150 400H50V0h100v400Zm0 200h300V500H150v100Z"/><glyph glyph-name="uni0430" unicode="а" horiz-adv-x="600" d="M450 300H150V200h300V100H150v100H50V100h100V0h400v400H450v100H150V400h300V300Z"/><glyph glyph-name="uni0431" unicode="б" horiz-adv-x="600" d="M450 100h100v200H450v100H150v200H50V100h100V0h300v100Zm0 0H150v200h300V100Zm0 500v100H150V600h300Z"/><glyph glyph-name="uni0432" unicode="в" horiz-adv-x="600" d="M450 100h100v100H450v100H150v100h300V300h100v100H450v100H50V0h400v100H150v100h300V100Z"/><glyph glyph-name="uni0433" unicode="г" horiz-adv-x="550" d="M50 0h100v400h350v100H50V0Z"/><glyph glyph-name="uni0434" unicode="д" horiz-adv-x="650" d="M100 200V100H50v-200h100V0h350v-100h100v200h-50v400H200V200h100v200h150V100H200v100H100Z"/><glyph glyph-name="uni0435" unicode="е" horiz-adv-x="600" d="M50 100h100V0h400v100H150v100h400v200H450v100H150V400H50V100Zm100 300h300V300H150v100Z"/><glyph glyph-name="uni0436" unicode="ж" horiz-adv-x="800" d="M550 100h100V0h100v100H650v100H550v100H450v200H350V300H250v100H150v100H50V400h100V300h100V200h100V0h100v200h100V100ZM250 200H150V100h100v100Zm300 100h100v100H550V300Zm100 100h100v100H650V400ZM150 100H50V0h100v100Z"/><glyph glyph-name="uni0437" unicode="з" horiz-adv-x="600" d="M550 400H450v100H50V400h400V300h100v100ZM450 300H150V200h300V100h100v100H450v100Zm0-200H50V0h400v100Z"/><glyph glyph-name="uni0438" unicode="и" horiz-adv-x="600" d="M350 300H250V200h100v100ZM150 500H50V0h100v100h100v100H150v300Zm400 0H450V400H350V300h100V0h100v500Z"/><glyph glyph-name="uni0439" unicode="й" horiz-adv-x="600" d="M350 300H250V200h100v100ZM150 500H50V0h100v100h100v100H150v300Zm400 0H450V400H350V300h100V0h100v500Zm-350 0h200v100H200v100H100V600h100V500Zm200 100h100v100H400V600Z"/><glyph glyph-name="uni043A" unicode="к" horiz-adv-x="500" d="M250 100h100V0h100v100H350v100H250v100H150v200H50V0h100v200h100V100Zm0 200h100v100H250V300Zm100 100h100v100H350V400Z"/><glyph glyph-name="uni043B" unicode="л" horiz-adv-x="600" d="M250 100v300h200V0h100v500H150V100h100Zm-200 0V0h100v100H50Z"/><glyph glyph-name="uni043C" unicode="м" horiz-adv-x="600" d="M250 200h100v100H250v100H150v100H50V0h100v300h100V200Zm200 200H350V300h100V0h100v500H450V400Z"/><glyph glyph-name="uni043D" unicode="н" horiz-adv-x="600" d="M450 0h100v500H450V300H150v200H50V0h100v200h300V0Z"/><glyph glyph-name="uni043E" unicode="о" horiz-adv-x="600" d="M450 100h100v300H450v100H150V400h300V100ZM150 0h300v100H150v300H50V100h100V0Z"/><glyph glyph-name="uni043F" unicode="п" horiz-adv-x="600" d="M450 0h100v500H50V0h100v400h300V0Z"/><glyph glyph-name="uni0440" unicode="р" horiz-adv-x="600" d="M50-100h100v200h300v100H150v100h100v100H150v100H50v-600Zm400 300h100v200H450v100H250V400h200V200Z"/><glyph glyph-name="uni0441" unicode="с" horiz-adv-x="600" d="M150 0h300v100H150v300H50V100h100V0Zm300 300h100v100H450v100H150V400h300V300Zm0-200h100v100H450V100Z"/><glyph glyph-name="uni0442" unicode="т" horiz-adv-x="600" d="M250 0h100v400h200v100H50V400h200V0Z"/><glyph glyph-name="uni0443" unicode="у" horiz-adv-x="600" d="M150 100h100V0h100v100H250v100H150v300H50V200h100V100Zm300 100h100v300H450V200ZM150-100h100V0H150v-100Zm200 200h100v100H350V100ZM50-100h100V0H50v-100Z"/><glyph glyph-name="uni0444" unicode="ф" horiz-adv-x="600" d="M450 100h100v300H450v100H350v200H250V500H150V400h100V100H150v300H50V100h100V0h100v-100h100V0h100v100Zm0 0H350v300h100V100Z"/><glyph glyph-name="uni0445" unicode="х" horiz-adv-x="600" d="M150 300h100V200h100V100h100V0h100v100H450v100H350v100H250v100H150v100H50V400h100V300ZM50 0h100v100H50V0Zm100 100h100v100H150V100Zm200 200h100v100H350V300Zm100 100h100v100H450V400Z"/><glyph glyph-name="uni0446" unicode="ц" horiz-adv-x="600" d="M450-100h100v200h-50v400H400V100H150v400H50V0h400v-100Z"/><glyph glyph-name="uni0447" unicode="ч" horiz-adv-x="600" d="M550 0v500H450V300H150v200H50V300h100V200h300V0h100Z"/><glyph glyph-name="uni0448" unicode="ш" horiz-adv-x="600" d="M450 100H350v400H250V100H150v400H50V0h500v500H450V100Z"/><glyph glyph-name="uni0449" unicode="щ" horiz-adv-x="650" d="M500-100h100v200h-50v400H450V100H350v400H250V100H150v400H50V0h450v-100Z"/><glyph glyph-name="uni044A" unicode="ъ" horiz-adv-x="700" d="M550 100h100v100H550v100H350v200H50V400h200V0h300v100Zm0 0H350v100h200V100Z"/><glyph glyph-name="uni044B" unicode="ы" horiz-adv-x="700" d="M350 100h100v100H350v100H150v200H50V0h300v100ZM550 0h100v500H550V0ZM350 100H150v100h200V100Z"/><glyph glyph-name="uni044C" unicode="ь" horiz-adv-x="600" d="M450 100h100v100H450v100H150v200H50V0h400v100Zm0 0H150v100h300V100Z"/><glyph glyph-name="uni044D" unicode="э" horiz-adv-x="600" d="M450 500H150V400h300V300H250V200h200V100h100v300H450v100ZM150 200H50V100h100V0h300v100H150v100Zm0 200H50V300h100v100Z"/><glyph glyph-name="uni044E" unicode="ю" horiz-adv-x="700" d="M250 100h100V0h200v100H350v300H250V300H150v200H50V0h100v200h100V100Zm300 0h100v300H550v100H350V400h200V100Z"/><glyph glyph-name="uni044F" unicode="я" horiz-adv-x="600" d="M550 500H150V400H50V300h100V200h300V0h100v500ZM150 400h300V300H150v100Zm0-200H50V0h100v200Z"/><glyph glyph-name="uni0450" unicode="ѐ" horiz-adv-x="600" d="M50 100h100V0h400v100H150v100h400v200H450v100H150V400H50V100Zm100 300h300V300H150v100Zm100 100h100v100H250v100H150V600h100V500Z"/><glyph glyph-name="uni0451" unicode="ё" horiz-adv-x="600" d="M50 100h100V0h400v100H150v100h400v200H450v100H150V400H50V100Zm100 300h300V300H150v100Zm300 300H350V600h100v100Zm-200 0H150V600h100v100Z"/><glyph glyph-name="uni0452" unicode="ђ" horiz-adv-x="650" d="M0 500h100V0h100v200h100v100H200v200h200v100H200v100H100V600H0V500ZM500 0h100v300H500v100H300V300h200V0ZM300-100h200V0H300v-100Z"/><glyph glyph-name="uni0453" unicode="ѓ" horiz-adv-x="550" d="M50 0h100v400h350v100H50V0Zm375 700H325V600h100v100ZM325 600H225V500h100v100Z"/><glyph glyph-name="uni0454" unicode="є" horiz-adv-x="600" d="M150 0h300v100H150v100h200v100H150v100H50V100h100V0Zm300 300h100v100H450v100H150V400h300V300Zm0-200h100v100H450V100Z"/><glyph glyph-name="uni0455" unicode="ѕ" horiz-adv-x="600" d="M150 200h300V100h100v100H450v100H150v100H50V300h100V200ZM50 0h400v100H50V0Zm100 400h400v100H150V400Z"/><glyph glyph-name="uni0456" unicode="і" horiz-adv-x="200" d="M50 600h100v100H50V600ZM50 0h100v500H50V0Z"/><glyph glyph-name="uni0457" unicode="ї" horiz-adv-x="200" d="M50 0h100v500H50V0Zm200 700H150V600h100v100Zm-200 0H-50V600H50v100Z"/><glyph glyph-name="uni0458" unicode="ј" horiz-adv-x="600" d="M450 0h100v500H450V0ZM150-100h300V0H150v200H50V0h100v-100Zm300 700h100v100H450V600Z"/><glyph glyph-name="uni0459" unicode="љ" horiz-adv-x="900" d="M750 100h100v100H750v100H550v200H150V100h100v300h200V0h300v100Zm0 0H550v100h200V100Zm-700 0V0h100v100H50Z"/><glyph glyph-name="uni045A" unicode="њ" horiz-adv-x="800" d="M650 100h100v100H650v100H450v200H350V300H150v200H50V0h100v200h200V0h300v100Zm0 0H450v100h200V100Z"/><glyph glyph-name="uni045B" unicode="ћ" horiz-adv-x="650" d="M0 500h100V0h100v200h100v100H200v200h200v100H200v100H100V600H0V500ZM500 0h100v300H500v100H300V300h200V0Z"/><glyph glyph-name="uni045C" unicode="ќ" horiz-adv-x="500" d="M250 100h100V0h100v100H350v100H250v100H150v200H50V0h100v200h100V100Zm0 200h100v100H250V300Zm100 100h100v100H350V400Zm50 300H300V600h100v100ZM300 600H200V500h100v100Z"/><glyph glyph-name="uni045D" unicode="ѝ" horiz-adv-x="600" d="M250 500h100v100H250v100H150V600h100V500Zm100-200H250V200h100v100ZM150 500H50V0h100v100h100v100H150v300Zm400 0H450V400H350V300h100V0h100v500Z"/><glyph glyph-name="uni045E" unicode="ў" horiz-adv-x="600" d="M150 100h100V0h100v100H250v100H150v300H50V200h100V100Zm300 100h100v300H450V200ZM150-100h100V0H150v-100Zm200 200h100v100H350V100ZM50-100h100V0H50v-100Zm150 600h200v100H200v100H100V600h100V500Zm200 100h100v100H400V600Z"/><glyph glyph-name="uni045F" unicode="џ" horiz-adv-x="600" d="M250-100h100V0h200v500H450V100H150v400H50V0h200v-100Z"/><glyph glyph-name="uni0490" unicode="Ґ" horiz-adv-x="600" d="M550 900H450V700H50V0h100v600h400v300Z"/><glyph glyph-name="uni0491" unicode="ґ" horiz-adv-x="550" d="M50 0h100v400h350v300H400V500H50V0Z"/><glyph glyph-name="uni1E02" unicode="Ḃ" horiz-adv-x="600" d="M450 100h100v300H450v100H150v100h300V500h100v100H450v100H50V0h400v100H150v300h300V100ZM250 800h100v100H250V800Z"/><glyph glyph-name="uni1E03" unicode="ḃ" horiz-adv-x="600" d="M50 0h400v100H150v200h100v100H150v300H50V0Zm400 100h100v300H450v100H250V400h200V100ZM350 600h100v100H350V600Z"/><glyph glyph-name="uni1E0A" unicode="Ḋ" horiz-adv-x="600" d="M450 100h100v500H450v100H50V0h400v100H150v500h300V100ZM250 800h100v100H250V800Z"/><glyph glyph-name="uni1E0B" unicode="ḋ" horiz-adv-x="600" d="M150 400h200V300h100V100H150v300H50V100h100V0h400v700H450V400H350v100H150V400Zm50 200h100v100H200V600Z"/><glyph glyph-name="uni1E1E" unicode="Ḟ" horiz-adv-x="600" d="M50 0h100v400h200v100H150v100h400v100H50V0Zm200 800h100v100H250V800Z"/><glyph glyph-name="uni1E1F" unicode="ḟ" horiz-adv-x="500" d="M150 500H50V400h100V0h100v400h200v100H250v100H150V500Zm150 200h-50V600h200v100h-50v100H300V700Z"/><glyph glyph-name="uni1E22" unicode="Ḣ" horiz-adv-x="600" d="M50 0h100v400h300V0h100v700H450V500H150v200H50V0Zm200 800h100v100H250V800Z"/><glyph glyph-name="uni1E23" unicode="ḣ" horiz-adv-x="600" d="M50 0h100v300h100v100H150v300H50V0Zm400 0h100v400H450v100H250V400h200V0ZM300 600h100v100H300V600Z"/><glyph glyph-name="Kacute" unicode="Ḱ" horiz-adv-x="600" d="M450 0h100v300H450v100H350v100H150v200H50V0h100v400h200V300h100V0Zm0 600h100v100H450V600ZM350 500h100v100H350V500Zm75 400H325V800h100v100ZM325 800H225V700h100v100Z"/><glyph glyph-name="kacute" unicode="ḱ" horiz-adv-x="500" d="M250 100h100V0h100v100H350v100H250v100H150v400H50V0h100v200h100V100Zm0 200h100v100H250V300Zm100 100h100v100H350V400Zm50 500H300V800h100v100ZM300 800H200V700h100v100Z"/><glyph glyph-name="uni1E40" unicode="Ṁ" horiz-adv-x="600" d="M250 400h100v100H250v100H150v100H50V0h100v500h100V400Zm200 200H350V500h100V0h100v700H450V600ZM250 800h100v100H250V800Z"/><glyph glyph-name="uni1E41" unicode="ṁ" horiz-adv-x="600" d="M250 200h100v200H250v100H50V0h100v400h100V200ZM450 0h100v400H450v100H350V400h100V0ZM250 600h100v100H250V600Z"/><glyph glyph-name="uni1E56" unicode="Ṗ" horiz-adv-x="600" d="M450 500h100v100H450v100H50V0h100v400h300v100H150v100h300V500ZM250 800h100v100H250V800Z"/><glyph glyph-name="uni1E57" unicode="ṗ" horiz-adv-x="600" d="M50-100h100v200h300v100H150v100h100v100H150v100H50v-600Zm400 300h100v200H450v100H250V400h200V200ZM250 600h100v100H250V600Z"/><glyph glyph-name="uni1E60" unicode="Ṡ" horiz-adv-x="600" d="M150 400h300V100h100v300H450v100H150v100H50V500h100V400Zm0-400h300v100H150v100H50V100h100V0Zm0 600h400v100H150V600Zm100 200h100v100H250V800Z"/><glyph glyph-name="uni1E61" unicode="ṡ" horiz-adv-x="600" d="M150 200h300V100h100v100H450v100H150v100H50V300h100V200ZM50 0h400v100H50V0Zm100 400h400v100H150V400Zm100 200h100v100H250V600Z"/><glyph glyph-name="uni1E6A" unicode="Ṫ" horiz-adv-x="600" d="M50 600h200V0h100v600h200v100H50V600Zm200 200h100v100H250V800Z"/><glyph glyph-name="uni1E6B" unicode="ṫ" horiz-adv-x="400" d="M250 0h100v100H250v300h100v100H250v200H150V500H50V400h100V100h100V0ZM150 750h100v100H150V750Z"/><glyph glyph-name="Wgrave" unicode="Ẁ" horiz-adv-x="600" d="M250 200h100V100h100V0h100v700H450V200H350v100H250V200ZM50 0h100v100h100v100H150v500H50V0Zm200 700h100v100H250v100H150V800h100V700Z"/><glyph glyph-name="wgrave" unicode="ẁ" horiz-adv-x="600" d="M450 100H350v200H250V100H150v400H50V100h100V0h400v500H450V100ZM250 500h100v100H250v100H150V600h100V500Z"/><glyph glyph-name="Wacute" unicode="Ẃ" horiz-adv-x="600" d="M250 200h100V100h100V0h100v700H450V200H350v100H250V200ZM50 0h100v100h100v100H150v500H50V0Zm400 900H350V800h100v100ZM350 800H250V700h100v100Z"/><glyph glyph-name="wacute" unicode="ẃ" horiz-adv-x="600" d="M450 100H350v200H250V100H150v400H50V100h100V0h400v500H450V100Zm0 600H350V600h100v100ZM350 600H250V500h100v100Z"/><glyph glyph-name="Wdieresis" unicode="Ẅ" horiz-adv-x="600" d="M250 200h100V100h100V0h100v700H450V200H350v100H250V200ZM50 0h100v100h100v100H150v500H50V0Zm400 900H350V800h100v100Zm-200 0H150V800h100v100Z"/><glyph glyph-name="wdieresis" unicode="ẅ" horiz-adv-x="600" d="M450 100H350v200H250V100H150v400H50V100h100V0h400v500H450V100Zm0 600H350V600h100v100Zm-200 0H150V600h100v100Z"/><glyph glyph-name="uni1E9E" unicode="ẞ" horiz-adv-x="600" d="M150 0v600H50V0h100Zm400 500v100H450v100H150V600h300V500h100ZM450 0v100H225V0h225ZM350 300V200h100V100h100v100H450v100H350Zm0 0v100H250V300h100Zm0 200V400h100v100H350Z"/><glyph glyph-name="Ygrave" unicode="Ỳ" horiz-adv-x="600" d="M150 500h100V0h100v500H250v100H150v100H50V600h100V500Zm200 0h100v100H350V500Zm100 100h100v100H450V600ZM250 700h100v100H250v100H150V800h100V700Z"/><glyph glyph-name="ygrave" unicode="ỳ" horiz-adv-x="600" d="M450 200H150v300H50V200h100V100h300V0h100v500H450V200Zm0-300V0H50v-100h400ZM300 500h100v100H300v100H200V600h100V500Z"/><glyph glyph-name="endash" unicode="–" horiz-adv-x="600" d="M50 300h500v100H50V300Z"/><glyph glyph-name="emdash" unicode="—" horiz-adv-x="800" d="M50 300h700v100H50V300Z"/><glyph glyph-name="uni2015" unicode="―" horiz-adv-x="1000" d="M50 300h900v100H50V300Z"/><glyph glyph-name="quoteleft" unicode="‘" horiz-adv-x="300" d="M150 600H50V400h100v200Zm100 100H150V600h100v100Z"/><glyph glyph-name="quoteright" unicode="’" horiz-adv-x="300" d="M150 500h100v200H150V500ZM50 400h100v100H50V400Z"/><glyph glyph-name="quotesinglbase" unicode="‚" horiz-adv-x="300" d="M150 0h100v200H150V0ZM50-100h100V0H50v-100Z"/><glyph glyph-name="quotedblleft" unicode="“" horiz-adv-x="500" d="M250 700H150V600h100V400h100v200H250v100ZM150 600H50V400h100v200Zm300 100H350V600h100v100Z"/><glyph glyph-name="quotedblright" unicode="”" horiz-adv-x="500" d="M250 400h100v100H250v200H150V500h100V400Zm100 100h100v200H350V500ZM50 400h100v100H50V400Z"/><glyph glyph-name="quotedblbase" unicode="„" horiz-adv-x="500" d="M250-100h100V0H250v200H150V0h100v-100ZM350 0h100v200H350V0ZM50-100h100V0H50v-100Z"/><glyph glyph-name="dagger" unicode="†" horiz-adv-x="400" d="M150 600H50V500h100V200h100v300h100v100H250v100H150V600Z"/><glyph glyph-name="daggerdbl" unicode="‡" horiz-adv-x="400" d="M150 200h100v100h100v100H250v100h100v100H250v100H150V600H50V500h100V400H50V300h100V200Z"/><glyph glyph-name="bullet" unicode="•" horiz-adv-x="300" d="M50 200h200v200H50V200Z"/><glyph glyph-name="ellipsis" unicode="…" horiz-adv-x="600" d="M50 0h100v100H50V0Zm200 0h100v100H250V0Zm200 0h100v100H450V0Z"/><glyph glyph-name="perthousand" unicode="‰" horiz-adv-x="800" d="M50 500h100v200H50V500Zm400 100h100v100H450V600ZM350 400h100v200H350V400ZM250 300h100v100H250V300ZM150 100h100v200H150V100ZM450 0h100v200H450V0ZM50 0h100v100H50V0Zm600 0h100v200H650V0Z"/><glyph glyph-name="guilsinglleft" unicode="‹" horiz-adv-x="400" d="M250 200H150v100H50V200h100V100h100V0h100v100H250v100Zm100 300H250V400h100v100ZM250 400H150V300h100v100Z"/><glyph glyph-name="guilsinglright" unicode="›" horiz-adv-x="400" d="M150 400V300h100V200h100v100H250v100H150v100H50V400h100ZM50 100V0h100v100H50Zm100 100V100h100v100H150Z"/><glyph glyph-name="fraction" unicode="⁄" horiz-adv-x="600" d="M450 600h100v100H450V600ZM350 400h100v200H350V400ZM250 300h100v100H250V300ZM150 100h100v200H150V100ZM50 0h100v100H50V0Z"/><glyph glyph-name="Euro" unicode="€" horiz-adv-x="500" d="M150 0h200v100H150v100h100v100H150v100h100v100H150v100H50V500H-50V400H50V300H-50V200H50V100h100V0Zm200 500h100v100H350v100H150V600h200V500Zm0-400h100v100H350V100Z"/><glyph glyph-name="trademark" unicode="™" horiz-adv-x="1000" d="M650 400h100v200H650v100H450V400h100v200h100V400ZM50 600h100V400h100v200h100v100H50V600Zm700 100V600h100V400h100v300H750Z"/><glyph glyph-name="Omega" unicode="Ω" horiz-adv-x="600" d="M450 200h100v400H450v100H150V600h300V200ZM50 0h200v200H150v400H50V200h100V100H50V0Zm500 0v100H450v100H350V0h200Z"/><glyph glyph-name="increment" unicode="∆" horiz-adv-x="600" d="M50 0h500v400H450v200H350v100H250V600h100V400h100V100H150v300H50V0Zm100 400h100v200H150V400Z"/><glyph glyph-name="product" unicode="∏" horiz-adv-x="600" d="M50 0h100v600h300V0h100v700H50V0Z"/><glyph glyph-name="summation" unicode="∑" horiz-adv-x="600" d="M250 300h100v100H250v100H150v100h400v100H50V500h100V400h100V300ZM50 0h500v100H150v100H50V0Zm100 200h100v100H150V200Z"/><glyph glyph-name="minus" unicode="−" horiz-adv-x="600" d="M50 400V300h500v100H50Z"/><glyph glyph-name="infinity" unicode="∞" horiz-adv-x="800" d="M150 600V500h200V200h100v300H350v100H150Zm500-100V200h100v300H650Zm-600 0V200h100v300H50Zm400 100V500h200v100H450ZM150 200V100h200v100H150Zm300 0V100h200v100H450Z"/><glyph glyph-name="lozenge" unicode="◊" horiz-adv-x="600" d="M550 450H450v150H350v100H250V600h100V450h100V250h100v200ZM150 250V100h100V0h100v100H250v150H150Zm0 0v200H50V250h100Zm300-150v150H350V100h100ZM150 450h100v150H150V450Z"/><glyph glyph-name="commaaccent" unicode="" horiz-adv-x="300" d="M100-100h100V0H100v-100Z"/><glyph glyph-name="fi" unicode="ﬁ" horiz-adv-x="700" d="M250 600h200v100H250V600ZM150 500H50V400h100V0h100v400h200v100H250v100H150V500Zm400 100h100v100H550V600Zm0-600h100v500H550V0Z"/><glyph glyph-name="fl" unicode="ﬂ" horiz-adv-x="800" d="M250 600h200v100H250V600ZM150 500H50V400h100V0h100v400h200v100H250v100H150V500ZM650 0h100v100H650v600H550V100h100V0Z"/></font>
</svg>
